<svg width="336" height="395" viewBox="0 0 336 395" fill="none" xmlns="http://www.w3.org/2000/svg">
<path opacity="0.1" fill-rule="evenodd" clip-rule="evenodd" d="M185.454 1.10759C185.138 1.61167 174.724 20.438 170.911 27.3965C169.639 29.7193 166.617 35.1974 164.198 39.5699C161.778 43.9424 158.816 49.3086 157.616 51.4948C156.416 53.6811 153.395 59.1591 150.901 63.6683C148.408 68.1774 145.326 73.7672 144.053 76.0901C142.779 78.413 139.697 84.0028 137.204 88.512C134.712 93.0211 129.556 102.356 125.749 109.256C121.941 116.157 116.053 126.819 112.663 132.951C109.274 139.083 106.543 144.14 106.595 144.189C106.647 144.238 108.163 142.853 109.964 141.111C117.022 134.285 121.743 129.695 129.312 122.299C136.487 115.289 144.419 107.552 168.791 83.7939C173.417 79.2835 178.78 74.0802 180.708 72.2309C182.636 70.3818 184.398 68.6208 184.623 68.318C184.847 68.0151 185.173 67.7757 185.346 67.7856C185.518 67.7955 189.689 72.0495 194.614 77.2386C199.538 82.428 204.23 87.3669 205.039 88.2141C215.801 99.4767 240.739 125.63 243.465 128.513C251.569 137.083 258.549 144.301 258.645 144.21C258.701 144.157 257.394 141.497 255.74 138.299C254.087 135.102 250.544 128.181 247.868 122.92C241.894 111.178 233.653 95.0113 231.087 90.0026C230.038 87.953 226.898 81.8042 224.11 76.3385C221.323 70.8729 215.931 60.3081 212.13 52.8613C208.328 45.4144 203.111 35.185 200.537 30.1293C197.963 25.0736 194.764 18.813 193.428 16.2168C192.093 13.6206 189.816 9.14876 188.367 6.27931C186.919 3.40986 185.7 1.02685 185.658 0.983375C185.615 0.940147 185.524 0.996045 185.454 1.10759ZM182.757 111.439C179.557 114.374 169.941 123.281 157.481 134.852C152.991 139.022 142.444 148.801 134.043 156.582C125.642 164.363 115.569 173.7 111.658 177.33C107.748 180.961 97.6745 190.296 89.2736 198.075C80.8727 205.855 70.8588 215.133 67.0205 218.694C63.1821 222.255 53.109 231.591 44.6357 239.441C27.1642 255.626 17.0921 264.963 7.79319 273.595C4.25903 276.876 1.13832 279.765 0.858379 280.015C0.578174 280.266 0.388295 280.507 0.436751 280.551C0.514176 280.621 10.3119 280.417 52.6679 279.464L63.4652 279.221L77.4357 292.434C85.1195 299.7 106.385 319.9 124.693 337.322C143.001 354.743 163.936 374.638 171.214 381.533L184.448 394.068L192.953 386.129C197.632 381.762 204.896 375.003 209.097 371.109C213.298 367.214 220.824 360.224 225.821 355.575C230.818 350.925 243.532 339.142 254.074 329.389C264.616 319.636 273.208 311.573 273.167 311.471C272.888 310.774 176.529 220.092 175.83 219.868C175.714 219.831 170.117 224.927 163.392 231.194L151.165 242.587L188.163 277.655C208.512 296.941 225.197 312.825 225.242 312.952C225.31 313.144 198.738 338.209 187.691 348.373L184.455 351.35L179.65 346.758C169.449 337.009 107.283 277.887 93.5011 264.828L79.0029 251.09L91.7754 239.142C98.8003 232.571 111.362 220.807 119.691 213C140.415 193.572 169.687 166.175 178.304 158.139L185.429 151.495L209.77 174.66C223.158 187.4 246.887 209.964 262.502 224.803L290.893 251.781L301.218 251.942C306.896 252.032 316.993 252.176 323.656 252.264L335.77 252.424L326.68 243.757C321.681 238.99 313.208 230.898 307.851 225.775C302.493 220.652 298.051 216.403 297.979 216.334C284.088 203.074 241.019 161.871 222.54 144.162C212.701 134.734 200.451 123.033 195.317 118.16C190.183 113.287 185.907 109.185 185.815 109.044C185.723 108.904 184.347 109.981 182.757 111.439Z" fill="url(#paint0_linear_1_337)"/>
<defs>
<linearGradient id="paint0_linear_1_337" x1="297.696" y1="271.137" x2="23.3242" y2="359.951" gradientUnits="userSpaceOnUse">
<stop stop-opacity="0"/>
<stop offset="0.0001" stop-color="#6530DA" stop-opacity="0.15"/>
<stop offset="1" stop-color="#2A07FF"/>
</linearGradient>
</defs>
</svg>
