<svg width="1282" height="501" viewBox="0 0 1282 501" fill="none" xmlns="http://www.w3.org/2000/svg">
<g opacity="0.7">
<g filter="url(#filter0_f_179_822)">
<path d="M715.299 719.624L344.828 491.078L419.892 399.911L715.299 719.624Z" fill="#56C2FF"/>
<path d="M709.947 731.072L415.654 414.045L468.06 372.456L709.947 731.072Z" fill="#2809E4"/>
<path d="M707.468 727.418L461.034 371.099L532.95 330.888L707.468 727.418Z" fill="#4053FF"/>
</g>
<g filter="url(#filter1_f_179_822)">
<path d="M773.64 682.003L518.84 329.075L623.079 273.576L773.64 682.003Z" fill="#56FFEB"/>
<path d="M764.309 690.535L613.75 285.015L678.083 266.649L764.309 690.535Z" fill="#56C2FF"/>
<path d="M763.417 686.211L672.111 262.707L753.941 253.079L763.417 686.211Z" fill="#40C6FF"/>
<path d="M765.208 685.768L747.011 252.916L829.289 257.299L765.208 685.768Z" fill="#2809E4"/>
</g>
</g>
<g opacity="0.2">
<g filter="url(#filter2_f_179_822)">
<path d="M243.541 543.442L-134.546 310.198L-57.9391 217.157L243.541 543.442Z" fill="#56C2FF"/>
<path d="M238.078 555.124L-62.2637 231.58L-8.78037 189.136L238.078 555.124Z" fill="#2809E4"/>
<path d="M235.55 551.395L-15.9503 187.751L57.4439 146.713L235.55 551.395Z" fill="#4053FF"/>
</g>
<g filter="url(#filter3_f_179_822)">
<path d="M303.08 505.047L43.0423 144.863L149.425 88.2229L303.08 505.047Z" fill="#56FFEB"/>
<path d="M293.559 513.753L139.905 99.8971L205.56 81.1535L293.559 513.753Z" fill="#56C2FF"/>
<path d="M292.647 509.341L199.464 77.1307L282.976 67.3055L292.647 509.341Z" fill="#40C6FF"/>
<path d="M294.477 508.888L275.907 67.1375L359.876 71.6107L294.477 508.888Z" fill="#2809E4"/>
</g>
</g>
<rect x="801.451" y="-8.2207" width="480.049" height="539.584" fill="url(#paint0_linear_179_822)"/>
<defs>
<filter id="filter0_f_179_822" x="175.913" y="161.973" width="708.3" height="738.014" filterUnits="userSpaceOnUse" color-interpolation-filters="sRGB">
<feFlood flood-opacity="0" result="BackgroundImageFix"/>
<feBlend mode="normal" in="SourceGraphic" in2="BackgroundImageFix" result="shape"/>
<feGaussianBlur stdDeviation="84.4574" result="effect1_foregroundBlur_179_822"/>
</filter>
<filter id="filter1_f_179_822" x="349.925" y="84.0011" width="648.279" height="775.449" filterUnits="userSpaceOnUse" color-interpolation-filters="sRGB">
<feFlood flood-opacity="0" result="BackgroundImageFix"/>
<feBlend mode="normal" in="SourceGraphic" in2="BackgroundImageFix" result="shape"/>
<feGaussianBlur stdDeviation="84.4574" result="effect1_foregroundBlur_179_822"/>
</filter>
<filter id="filter2_f_179_822" x="-306.933" y="-25.6737" width="722.861" height="753.185" filterUnits="userSpaceOnUse" color-interpolation-filters="sRGB">
<feFlood flood-opacity="0" result="BackgroundImageFix"/>
<feBlend mode="normal" in="SourceGraphic" in2="BackgroundImageFix" result="shape"/>
<feGaussianBlur stdDeviation="86.1935" result="effect1_foregroundBlur_179_822"/>
</filter>
<filter id="filter3_f_179_822" x="-129.345" y="-105.25" width="661.608" height="791.39" filterUnits="userSpaceOnUse" color-interpolation-filters="sRGB">
<feFlood flood-opacity="0" result="BackgroundImageFix"/>
<feBlend mode="normal" in="SourceGraphic" in2="BackgroundImageFix" result="shape"/>
<feGaussianBlur stdDeviation="86.1935" result="effect1_foregroundBlur_179_822"/>
</filter>
<linearGradient id="paint0_linear_179_822" x1="2487.76" y1="261.571" x2="801.451" y2="261.572" gradientUnits="userSpaceOnUse">
<stop stop-color="#56FFEB" stop-opacity="0.19"/>
<stop offset="1" stop-color="#56FFEB" stop-opacity="0"/>
</linearGradient>
</defs>
</svg>
