<svg xmlns="http://www.w3.org/2000/svg" width="1441" height="1638" viewBox="0 0 1441 1638" fill="none">
<g clip-path="url(#clip0_1_74)">
<rect width="1440" height="1638" transform="translate(0.494141)" fill="white"/>
<g opacity="0.3">
<g filter="url(#filter0_f_1_74)">
<path d="M-51.7435 1384.68L-26.1836 1030.69L28.097 1038.86L-51.7435 1384.68Z" fill="#1DB6F8"/>
<path d="M-50.939 1381.15L24.9781 1033.89L89.3495 1054.54L-50.939 1381.15Z" fill="#2A3ACC"/>
<path d="M-49.448 1381.43L84.235 1052.07L144.174 1083.33L-49.448 1381.43Z" fill="#2907F7"/>
</g>
<g filter="url(#filter1_f_1_74)">
<path d="M113.802 1376.12L183.004 1025.74L274.637 1057.23L113.802 1376.12Z" fill="#2907F7"/>
<path d="M103.464 1375.3L262.554 1058.03L309.574 1086.36L103.464 1375.3Z" fill="#567CFF"/>
<path d="M105.561 1372.34L308.598 1080.57L360.164 1124.29L105.561 1372.34Z" fill="#1DB6F8"/>
<path d="M106.83 1373.17L356.387 1120.04L399.797 1171.87L106.83 1373.17Z" fill="#1DB6F8"/>
</g>
</g>
<g opacity="0.3">
<g filter="url(#filter2_f_1_74)">
<path d="M1481.34 1289.34L918.193 941.929L1032.3 803.347L1481.34 1289.34Z" fill="#56C2FF"/>
<path d="M1473.2 1306.74L1025.85 824.831L1105.51 761.613L1473.2 1306.74Z" fill="#56FFEB"/>
<path d="M1469.43 1301.19L1094.83 759.553L1204.15 698.428L1469.43 1301.19Z" fill="#4053FF"/>
<path d="M1471.7 1299.52L1194.33 702.228L1312.43 660.518L1471.7 1299.52Z" fill="#56FFEB"/>
</g>
<g filter="url(#filter3_f_1_74)">
<path d="M1658.37 1299.66L1271.05 763.176L1429.5 678.813L1658.37 1299.66Z" fill="#56FFEB"/>
<path d="M1644.19 1312.62L1415.32 696.196L1513.11 668.278L1644.19 1312.62Z" fill="#56C2FF"/>
</g>
</g>
<g opacity="0.3">
<g filter="url(#filter4_f_1_74)">
<path d="M288.584 560.974L-212.696 251.731L-111.129 128.374L288.584 560.974Z" fill="#9440FF"/>
<path d="M281.338 576.464L-116.865 147.498L-45.9552 91.2247L281.338 576.464Z" fill="#F05FFD"/>
<path d="M277.984 571.523L-55.4631 89.3923L41.8455 34.9826L277.984 571.523Z" fill="#9440FF"/>
<path d="M280 570.041L33.1053 38.3647L138.229 1.23732L280 570.041Z" fill="#5C09E4"/>
</g>
<g filter="url(#filter5_f_1_74)">
<path d="M367.521 510.073L22.7544 32.5287L163.8 -42.5665L367.521 510.073Z" fill="#F05FFD"/>
<path d="M354.896 521.611L151.177 -27.0933L238.225 -51.9443L354.896 521.611Z" fill="#B85FFD"/>
<path d="M353.69 515.759L230.144 -57.2795L340.867 -70.3061L353.69 515.759Z" fill="#40C6FF"/>
<path d="M356.12 515.164L331.499 -70.5244L442.828 -64.5936L356.12 515.164Z" fill="#5C09E4"/>
</g>
</g>


</g>
<defs>
<filter id="filter0_f_1_74" x="-341.282" y="796.084" width="714.697" height="817.839" filterUnits="userSpaceOnUse" color-interpolation-filters="sRGB">
<feFlood flood-opacity="0" result="BackgroundImageFix"/>
<feBlend mode="normal" in="SourceGraphic" in2="BackgroundImageFix" result="shape"/>
<feGaussianBlur stdDeviation="114.621" result="effect1_foregroundBlur_1_74"/>
</filter>
<filter id="filter1_f_1_74" x="-125.778" y="796.496" width="754.817" height="808.869" filterUnits="userSpaceOnUse" color-interpolation-filters="sRGB">
<feFlood flood-opacity="0" result="BackgroundImageFix"/>
<feBlend mode="normal" in="SourceGraphic" in2="BackgroundImageFix" result="shape"/>
<feGaussianBlur stdDeviation="114.621" result="effect1_foregroundBlur_1_74"/>
</filter>
<filter id="filter2_f_1_74" x="305.287" y="47.6119" width="1788.96" height="1872.03" filterUnits="userSpaceOnUse" color-interpolation-filters="sRGB">
<feFlood flood-opacity="0" result="BackgroundImageFix"/>
<feBlend mode="normal" in="SourceGraphic" in2="BackgroundImageFix" result="shape"/>
<feGaussianBlur stdDeviation="306.453" result="effect1_foregroundBlur_1_74"/>
</filter>
<filter id="filter3_f_1_74" x="658.145" y="34.4987" width="1697.73" height="1891.03" filterUnits="userSpaceOnUse" color-interpolation-filters="sRGB">
<feFlood flood-opacity="0" result="BackgroundImageFix"/>
<feBlend mode="normal" in="SourceGraphic" in2="BackgroundImageFix" result="shape"/>
<feGaussianBlur stdDeviation="306.453" result="effect1_foregroundBlur_1_74"/>
</filter>
<filter id="filter4_f_1_74" x="-828.73" y="-614.796" width="1733.35" height="1807.29" filterUnits="userSpaceOnUse" color-interpolation-filters="sRGB">
<feFlood flood-opacity="0" result="BackgroundImageFix"/>
<feBlend mode="normal" in="SourceGraphic" in2="BackgroundImageFix" result="shape"/>
<feGaussianBlur stdDeviation="308.017" result="effect1_foregroundBlur_1_74"/>
</filter>
<filter id="filter5_f_1_74" x="-593.28" y="-686.557" width="1652.14" height="1824.2" filterUnits="userSpaceOnUse" color-interpolation-filters="sRGB">
<feFlood flood-opacity="0" result="BackgroundImageFix"/>
<feBlend mode="normal" in="SourceGraphic" in2="BackgroundImageFix" result="shape"/>
<feGaussianBlur stdDeviation="308.017" result="effect1_foregroundBlur_1_74"/>
</filter>
<clipPath id="clip0_1_74">
<rect width="1440" height="1638" fill="white" transform="translate(0.494141)"/>
</clipPath>
</defs>
</svg>