<svg width="100" height="56" viewBox="0 0 100 56" fill="none" xmlns="http://www.w3.org/2000/svg">
<path fill-rule="evenodd" clip-rule="evenodd" d="M26.0262 0.0195302C25.9818 0.0904355 24.5169 2.73861 23.9806 3.71741C23.8015 4.04415 23.3766 4.81471 23.0362 5.42976C22.6958 6.04481 22.2792 6.79964 22.1104 7.10716C21.9416 7.41469 21.5166 8.18525 21.1659 8.81952C20.8152 9.45378 20.3817 10.2401 20.2025 10.5668C20.0234 10.8936 19.5899 11.6798 19.2392 12.3141C18.8886 12.9484 18.1635 14.2615 17.6279 15.2321C17.0923 16.2027 16.264 17.7026 15.7872 18.5651C15.3105 19.4276 14.9264 20.1389 14.9337 20.1458C14.941 20.1527 15.1542 19.9578 15.4075 19.7128C16.4003 18.7527 17.0644 18.107 18.129 17.0668C19.1383 16.0806 20.2541 14.9923 23.6823 11.6505C24.3331 11.016 25.0875 10.2841 25.3586 10.024C25.6298 9.76386 25.8776 9.51616 25.9092 9.47356C25.9409 9.43096 25.9866 9.39728 26.011 9.39867C26.0353 9.40007 26.6219 9.99845 27.3146 10.7284C28.0074 11.4583 28.6673 12.153 28.7811 12.2722C30.2949 13.8565 33.8027 17.5352 34.1862 17.9408C35.3262 19.1463 36.3079 20.1615 36.3214 20.1488C36.3293 20.1413 36.1455 19.7672 35.9129 19.3174C35.6803 18.8676 35.182 17.8941 34.8055 17.1541C33.9652 15.5024 32.806 13.2283 32.4451 12.5238C32.2975 12.2355 31.8558 11.3706 31.4637 10.6018C31.0716 9.83295 30.3132 8.34687 29.7785 7.29937C29.2437 6.25186 28.5099 4.81296 28.1478 4.10181C27.7857 3.39066 27.3357 2.51002 27.1479 2.14484C26.9601 1.77965 26.6397 1.15063 26.436 0.747001C26.2323 0.343375 26.0608 0.00817274 26.0548 0.0020572C26.0489 -0.00402339 26.036 0.00383944 26.0262 0.0195302ZM25.6468 15.5391C25.1967 15.9519 23.844 17.2049 22.0915 18.8325C21.4599 19.4191 19.9763 20.7945 18.7946 21.889C17.6129 22.9835 16.196 24.2969 15.6459 24.8076C15.0958 25.3183 13.6788 26.6314 12.4971 27.7257C11.3154 28.8199 9.90685 30.125 9.36694 30.626C8.82703 31.1269 7.41011 32.4401 6.21822 33.5442C3.76063 35.8209 2.34386 37.1343 1.03584 38.3485C0.538716 38.81 0.0997473 39.2164 0.0603698 39.2516C0.0209553 39.2869 -0.00575373 39.3207 0.00106232 39.3269C0.0119532 39.3367 1.39013 39.3081 7.34806 39.1741L8.86685 39.1399L10.832 40.9984C11.9128 42.0205 14.9041 44.8619 17.4794 47.3125C20.0547 49.7631 22.9994 52.5616 24.0232 53.5314L25.8847 55.2947L27.0811 54.1779C27.7391 53.5637 28.761 52.6129 29.3519 52.0651C29.9428 51.5173 31.0014 50.534 31.7043 49.88C32.4072 49.2261 34.1956 47.5685 35.6785 46.1967C37.1613 44.8248 38.3699 43.6907 38.3641 43.6763C38.3249 43.5782 24.7708 30.8225 24.6724 30.791C24.6562 30.7858 23.8689 31.5028 22.9229 32.3842L21.2029 33.9868L26.4072 38.9195C29.2695 41.6325 31.6166 43.8667 31.6229 43.8846C31.6325 43.9115 27.8947 47.4372 26.3408 48.867L25.8857 49.2858L25.2098 48.6399C23.7748 47.2685 15.0303 38.9522 13.0918 37.1153L11.0524 35.1828L12.8491 33.5023C13.8372 32.5779 15.6042 30.9231 16.7757 29.825C19.6909 27.0923 23.8084 23.2384 25.0205 22.108L26.0226 21.1735L29.4465 24.4319C31.3297 26.2241 34.6676 29.398 36.8641 31.4852L40.8576 35.28L42.3099 35.3028C43.1086 35.3153 44.5289 35.3357 45.4661 35.348L47.1701 35.3705L45.8915 34.1514C45.1883 33.4808 43.9964 32.3426 43.2429 31.622C42.4893 30.9013 41.8645 30.3037 41.8543 30.294C39.9003 28.4288 33.8422 22.633 31.2428 20.142C29.8588 18.8158 28.1357 17.1699 27.4135 16.4845C26.6914 15.799 26.09 15.222 26.077 15.2023C26.064 15.1825 25.8704 15.3341 25.6468 15.5391Z" fill="white"/>
<path fill-rule="evenodd" clip-rule="evenodd" d="M88.4755 10.2158C84.9778 10.4606 81.8318 12.252 79.9533 15.0685C78.7442 16.8812 78.1656 18.9519 78.2334 21.2235C78.267 22.3467 78.4338 23.2542 78.7957 24.2814C79.8711 27.3344 82.1443 29.6226 85.2975 30.8258C86.1536 31.1524 86.9654 31.3544 88.0202 31.5031C88.547 31.5773 90.444 31.5669 91.0763 31.4863C93.2008 31.2154 94.9035 30.5497 96.2995 29.4441C98.656 27.5777 99.9114 24.8651 99.9908 21.4681C100.009 20.7049 100.005 20.6383 99.939 20.5246C99.8346 20.3448 99.571 20.1903 99.2898 20.1441C98.9615 20.0902 89.9361 20.0893 89.6699 20.1432C89.3991 20.198 89.1599 20.365 89.0235 20.5945L88.9093 20.7867L88.898 21.8641C88.8854 23.0708 88.8987 23.159 89.1311 23.4152C89.2018 23.4932 89.3447 23.592 89.454 23.6386L89.6501 23.7222L92.0858 23.7321C93.4253 23.7375 94.5214 23.7492 94.5214 23.7579C94.5214 23.7666 94.4693 23.9273 94.4058 24.1149C93.9478 25.4663 92.8292 26.5464 91.3783 27.0381C90.6874 27.2723 89.6055 27.3876 88.8537 27.3071C87.2607 27.1367 86.0152 26.4742 84.9645 25.2383C84.1933 24.3314 83.7027 23.2277 83.5368 22.0273C83.3928 20.9853 83.4467 19.8761 83.6846 18.9864C84.0173 17.7422 84.6456 16.7166 85.6005 15.8593C86.3914 15.1493 87.2094 14.7392 88.2619 14.5253C88.7476 14.4266 90.0655 14.436 90.5832 14.542C92.0007 14.832 92.9664 15.4849 93.7445 16.6794C94.0243 17.1089 94.2115 17.2894 94.5214 17.4286L94.7622 17.5367L96.6657 17.547C98.6963 17.5579 98.8472 17.5483 99.1021 17.3924C99.4648 17.1705 99.5387 16.8201 99.337 16.2787C99.0649 15.5481 98.4271 14.4578 97.8483 13.7337C97.555 13.3667 96.6268 12.4907 96.2439 12.2196C94.7062 11.1305 93.1056 10.529 91.0984 10.2859C90.4274 10.2046 89.1304 10.1699 88.4755 10.2158ZM53.4083 10.5667C53.2249 10.6018 52.9786 10.7288 52.8583 10.8504C52.8134 10.8957 52.7384 11.0112 52.6916 11.1071L52.6064 11.2814L52.5955 20.7692C52.587 28.0921 52.5947 30.304 52.6294 30.4627C52.6943 30.7606 52.8547 30.9662 53.1224 31.095L53.3421 31.2006H57.0517L57.2184 31.118C57.4462 31.0052 57.5421 30.9163 57.6573 30.7114L57.7555 30.5366L57.7668 20.9964C57.7749 14.1738 57.7665 11.4052 57.7375 11.2775C57.6661 10.9635 57.442 10.7218 57.1072 10.5977C57.0049 10.5598 56.6181 10.5482 55.2736 10.5427C54.3363 10.5389 53.497 10.5497 53.4083 10.5667ZM61.7875 10.5662C61.419 10.6357 61.1163 10.8841 61.0174 11.1983C60.9348 11.4607 60.9322 13.855 61.0143 14.1144C61.0823 14.3294 61.2467 14.5202 61.4719 14.645L61.6451 14.741L66.3126 14.776L66.3311 22.6388C66.3482 29.8933 66.3544 30.5116 66.4116 30.6306C66.5158 30.8472 66.7606 31.0679 66.9842 31.1469C67.1766 31.2148 67.2661 31.2181 68.9213 31.2181C70.4331 31.2181 70.6811 31.2106 70.846 31.1604C71.0878 31.0867 71.302 30.9135 71.4121 30.7025L71.4987 30.5366L71.5358 14.776L73.8695 14.7585C75.6233 14.7454 76.2292 14.7302 76.3076 14.6973C76.6209 14.5661 76.8176 14.3015 76.8889 13.9152C76.9178 13.759 76.9269 13.2982 76.9169 12.5C76.9043 11.4918 76.8927 11.2927 76.8387 11.1571C76.7468 10.9261 76.5831 10.7578 76.3414 10.6459L76.1292 10.5475L69.0353 10.5423C65.1337 10.5395 61.8722 10.5502 61.7875 10.5662Z" fill="white"/>
<path d="M51.9736 37.5213V46.6689H58.5895C59.7118 46.6689 60.7035 46.5775 61.5517 46.3818C62.413 46.1991 63.0915 45.9642 63.6005 45.6771C64.0963 45.39 64.5009 45.0377 64.8271 44.6201C65.1403 44.2156 65.3491 43.8241 65.4535 43.4327C65.5709 43.0542 65.6231 42.6497 65.6231 42.2191V41.8406C65.6231 41.4753 65.5839 41.136 65.4926 40.8097C65.4143 40.4835 65.2708 40.1573 65.0881 39.818C64.8923 39.4787 64.6183 39.1786 64.266 38.9176C63.9136 38.6436 63.483 38.4087 62.9741 38.1868C62.4782 37.965 61.8519 37.8084 61.095 37.691C60.3512 37.5735 59.503 37.5213 58.5765 37.5213H51.9736ZM55.0923 39.6745H58.3416C61.0167 39.6745 62.3477 40.4574 62.3477 42.0364V42.1016C62.3477 43.6806 61.0167 44.4635 58.3416 44.4635H55.0923V39.6745Z" fill="white"/>
<path d="M51.9736 37.5213V46.6689H58.5895C59.7118 46.6689 60.7035 46.5775 61.5517 46.3818C62.413 46.1991 63.0915 45.9642 63.6005 45.6771C64.0963 45.39 64.5009 45.0377 64.8271 44.6201C65.1403 44.2156 65.3491 43.8241 65.4535 43.4327C65.5709 43.0542 65.6231 42.6497 65.6231 42.2191V41.8406C65.6231 41.4753 65.5839 41.136 65.4926 40.8097C65.4143 40.4835 65.2708 40.1573 65.0881 39.818C64.8923 39.4787 64.6183 39.1786 64.266 38.9176C63.9136 38.6436 63.483 38.4087 62.9741 38.1868C62.4782 37.965 61.8519 37.8084 61.095 37.691C60.3512 37.5735 59.503 37.5213 58.5765 37.5213H51.9736ZM55.0923 39.6745H58.3416C61.0167 39.6745 62.3477 40.4574 62.3477 42.0364V42.1016C62.3477 43.6806 61.0167 44.4635 58.3416 44.4635H55.0923V39.6745Z" fill="url(#paint0_linear_1_3757)"/>
<path d="M66.9247 37.5213V46.6689H77.5729V44.5418H70.0043V43.0412H77.2597V40.9533H70.0043V39.5962H77.4293V37.5213H66.9247Z" fill="white"/>
<path d="M66.9247 37.5213V46.6689H77.5729V44.5418H70.0043V43.0412H77.2597V40.9533H70.0043V39.5962H77.4293V37.5213H66.9247Z" fill="url(#paint1_linear_1_3757)"/>
<path d="M87.2146 46.5645L91.9646 37.5474H88.7675L85.3747 44.1765L81.76 37.5474H78.2759L83.3781 46.5645H87.2146Z" fill="white"/>
<path d="M87.2146 46.5645L91.9646 37.5474H88.7675L85.3747 44.1765L81.76 37.5474H78.2759L83.3781 46.5645H87.2146Z" fill="url(#paint2_linear_1_3757)"/>
<defs>
<linearGradient id="paint0_linear_1_3757" x1="30.6161" y1="42.7256" x2="70.2664" y2="85.7642" gradientUnits="userSpaceOnUse">
<stop stop-color="#40C6FF"/>
<stop offset="0.203119" stop-color="#1A8AD7"/>
<stop offset="0.817714" stop-color="#56FFEB"/>
</linearGradient>
<linearGradient id="paint1_linear_1_3757" x1="30.6161" y1="42.7256" x2="70.2664" y2="85.7642" gradientUnits="userSpaceOnUse">
<stop stop-color="#40C6FF"/>
<stop offset="0.203119" stop-color="#1A8AD7"/>
<stop offset="0.817714" stop-color="#56FFEB"/>
</linearGradient>
<linearGradient id="paint2_linear_1_3757" x1="30.6161" y1="42.7256" x2="70.2664" y2="85.7642" gradientUnits="userSpaceOnUse">
<stop stop-color="#40C6FF"/>
<stop offset="0.203119" stop-color="#1A8AD7"/>
<stop offset="0.817714" stop-color="#56FFEB"/>
</linearGradient>
</defs>
</svg>
