<svg width="116" height="62" viewBox="0 0 116 62" fill="none" xmlns="http://www.w3.org/2000/svg">
<path fill-rule="evenodd" clip-rule="evenodd" d="M29.4441 0.267818C29.3947 0.346689 27.7652 3.29235 27.1687 4.38111C26.9695 4.74456 26.4968 5.60168 26.1182 6.28583C25.7396 6.96997 25.2762 7.8096 25.0884 8.15167C24.9007 8.49374 24.4279 9.35086 24.0378 10.0564C23.6477 10.7619 23.1655 11.6365 22.9662 12C22.7669 12.3634 22.2847 13.238 21.8947 13.9436C21.5047 14.6491 20.6981 16.1097 20.1023 17.1893C19.5065 18.269 18.5852 19.9373 18.0549 20.8967C17.5246 21.8561 17.0973 22.6474 17.1054 22.655C17.1135 22.6627 17.3508 22.446 17.6325 22.1734C18.7369 21.1054 19.4755 20.3872 20.6597 19.2301C21.7824 18.1332 23.0235 16.9227 26.8369 13.2053C27.5608 12.4996 28.3999 11.6855 28.7016 11.3961C29.0032 11.1068 29.2788 10.8313 29.314 10.7839C29.3492 10.7365 29.4001 10.6991 29.4271 10.7006C29.4542 10.7022 30.1067 11.3678 30.8773 12.1797C31.6478 12.9916 32.3819 13.7644 32.5085 13.897C34.1924 15.6592 38.0942 19.7512 38.5208 20.2024C39.7888 21.5433 40.8809 22.6726 40.8959 22.6584C40.9047 22.6501 40.7002 22.2339 40.4414 21.7336C40.1827 21.2332 39.6284 20.1504 39.2097 19.3273C38.275 17.49 36.9855 14.9605 36.5841 14.1768C36.4199 13.8561 35.9286 12.894 35.4925 12.0388C35.0563 11.1837 34.2127 9.53064 33.6179 8.36546C33.023 7.20028 32.2068 5.59974 31.8041 4.8087C31.4013 4.01766 30.9008 3.03809 30.6918 2.63188C30.4829 2.22567 30.1265 1.52598 29.8999 1.07701C29.6733 0.628043 29.4826 0.255185 29.476 0.248382C29.4693 0.241618 29.455 0.250365 29.4441 0.267818ZM29.0221 17.5309C28.5214 17.99 27.0168 19.3837 25.0673 21.1942C24.3648 21.8467 22.7145 23.3766 21.4001 24.5941C20.0856 25.8116 18.5095 27.2724 17.8976 27.8406C17.2857 28.4086 15.7096 29.8693 14.3952 31.0864C13.0807 32.3036 11.5139 33.7554 10.9134 34.3125C10.3128 34.8697 8.73669 36.3305 7.41091 37.5586C4.67724 40.091 3.1013 41.552 1.64635 42.9027C1.09338 43.416 0.605093 43.868 0.561292 43.9072C0.51745 43.9464 0.487741 43.9841 0.495322 43.9909C0.507437 44.0019 2.04043 43.97 8.66767 43.8209L10.3571 43.7829L12.543 45.8502C13.7452 46.9872 17.0726 50.1477 19.9372 52.8736C22.8017 55.5995 26.0772 58.7124 27.2161 59.7911L29.2867 61.7525L30.6175 60.5102C31.3494 59.827 32.4861 58.7695 33.1434 58.1601C33.8007 57.5508 34.9782 56.457 35.7601 55.7296C36.542 55.0021 38.5312 53.1584 40.1807 51.6324C41.8301 50.1065 43.1745 48.8449 43.1681 48.8289C43.1244 48.7199 28.0477 34.5312 27.9383 34.4962C27.9202 34.4904 27.0444 35.2878 25.9922 36.2683L24.079 38.051L29.8679 43.5378C33.0518 46.5555 35.6626 49.0408 35.6696 49.0606C35.6801 49.0906 31.5225 53.0124 29.7941 54.6028L29.2878 55.0686L28.5359 54.3501C26.9398 52.8247 17.213 43.5742 15.0567 41.5309L12.7882 39.3813L14.7866 37.512C15.8858 36.4838 17.8513 34.6431 19.1544 33.4216C22.3971 30.3819 26.9771 26.0951 28.3254 24.8377L29.4401 23.7982L33.2487 27.4227C35.3434 29.4161 39.0563 32.9466 41.4995 35.2683L45.9417 39.4894L47.557 39.5147C48.4455 39.5287 50.0253 39.5514 51.0678 39.5651L52.9633 39.5901L51.5411 38.234C50.7589 37.4881 49.4331 36.222 48.5949 35.4204C47.7567 34.6188 47.0616 33.9541 47.0503 33.9433C44.8768 31.8685 38.1381 25.4217 35.2467 22.6508C33.7072 21.1756 31.7905 19.3449 30.9873 18.5824C30.184 17.82 29.515 17.1782 29.5006 17.1562C29.4862 17.1342 29.2708 17.3028 29.0221 17.5309ZM102.463 27.7238C98.572 27.9962 95.0726 29.9888 92.983 33.1217C91.6382 35.1381 90.9946 37.4414 91.07 39.9682C91.1073 41.2176 91.2929 42.227 91.6954 43.3696C92.8916 46.7656 95.4202 49.3108 98.9276 50.6491C99.8799 51.0125 100.783 51.2371 101.956 51.4025C102.542 51.4851 104.652 51.4736 105.356 51.3839C107.719 51.0826 109.613 50.3421 111.166 49.1122C113.787 47.0362 115.183 44.0189 115.272 40.2403C115.291 39.3913 115.287 39.3172 115.214 39.1908C115.098 38.9908 114.805 38.8189 114.492 38.7675C114.127 38.7075 104.087 38.7066 103.791 38.7665C103.49 38.8275 103.224 39.0132 103.072 39.2685L102.945 39.4823L102.933 40.6807C102.919 42.023 102.933 42.1211 103.192 42.4061C103.271 42.4928 103.43 42.6027 103.551 42.6545L103.769 42.7475L106.478 42.7586C107.969 42.7646 109.188 42.7776 109.188 42.7872C109.188 42.797 109.13 42.9757 109.059 43.1844C108.55 44.6876 107.305 45.889 105.692 46.436C104.923 46.6965 103.72 46.8247 102.883 46.7352C101.111 46.5457 99.726 45.8087 98.5572 44.434C97.6994 43.4252 97.1536 42.1976 96.9692 40.8622C96.809 39.7032 96.8689 38.4694 97.1336 37.4797C97.5036 36.0957 98.2025 34.9549 99.2647 34.0014C100.144 33.2115 101.054 32.7555 102.225 32.5175C102.765 32.4077 104.231 32.4182 104.807 32.536C106.384 32.8586 107.458 33.5849 108.324 34.9136C108.635 35.3913 108.843 35.5921 109.188 35.7469L109.456 35.8672L111.573 35.8786C113.832 35.8907 113.999 35.8801 114.283 35.7066C114.686 35.4598 114.769 35.0701 114.544 34.4678C114.242 33.6552 113.532 32.4424 112.888 31.637C112.562 31.2288 111.53 30.2544 111.104 29.9528C109.393 28.7413 107.613 28.0722 105.38 27.8018C104.634 27.7114 103.191 27.6729 102.463 27.7238ZM63.456 28.1142C63.252 28.1532 62.9781 28.2945 62.8442 28.4298C62.7943 28.4802 62.7109 28.6087 62.6588 28.7153L62.5641 28.9092L62.5519 39.4629C62.5425 47.6084 62.5511 50.0687 62.5896 50.2453C62.6618 50.5766 62.8403 50.8054 63.138 50.9486L63.3823 51.0661H65.4455H67.5087L67.6941 50.9742C67.9475 50.8487 68.0542 50.7499 68.1824 50.5219L68.2916 50.3275L68.3041 39.7155C68.3131 32.1265 68.3039 29.0469 68.2716 28.9048C68.1922 28.5555 67.9429 28.2867 67.5705 28.1487C67.4567 28.1065 67.0264 28.0936 65.5308 28.0875C64.4883 28.0833 63.5547 28.0953 63.456 28.1142ZM72.7765 28.1136C72.3667 28.1909 72.03 28.4673 71.9199 28.8167C71.8281 29.1086 71.8252 31.7719 71.9164 32.0604C71.9921 32.2996 72.175 32.5118 72.4255 32.6506L72.6181 32.7575L75.2141 32.7769L77.81 32.7964L77.8306 41.5425C77.8496 49.612 77.8565 50.2997 77.9202 50.4321C78.036 50.673 78.3083 50.9185 78.5571 51.0063C78.771 51.0818 78.8706 51.0855 80.7118 51.0855C82.3934 51.0855 82.6693 51.0772 82.8527 51.0213C83.1217 50.9394 83.3599 50.7467 83.4824 50.512L83.5787 50.3275L83.5993 41.5619L83.6199 32.7964L86.2158 32.7769C88.1666 32.7623 88.8406 32.7454 88.9279 32.7089C89.2764 32.5629 89.4951 32.2685 89.5744 31.8388C89.6065 31.6651 89.6167 31.1526 89.6055 30.2646C89.5915 29.1433 89.5786 28.9218 89.5186 28.7709C89.4164 28.514 89.2342 28.3268 88.9655 28.2023L88.7294 28.0929L80.8386 28.0871C76.4986 28.0839 72.8707 28.0958 72.7765 28.1136Z" fill="black"/>
</svg>
