<svg width="116" height="63" viewBox="0 0 116 63" fill="none" xmlns="http://www.w3.org/2000/svg">
<path fill-rule="evenodd" clip-rule="evenodd" d="M29.4441 0.732662C29.3947 0.811532 27.7652 3.75719 27.1687 4.84595C26.9695 5.2094 26.4968 6.06653 26.1182 6.75067C25.7396 7.43481 25.2762 8.27444 25.0884 8.61651C24.9007 8.95858 24.4279 9.81571 24.0378 10.5212C23.6477 11.2268 23.1655 12.1014 22.9662 12.4648C22.7669 12.8283 22.2847 13.7029 21.8947 14.4084C21.5047 15.1139 20.6981 16.5745 20.1023 17.6542C19.5065 18.7339 18.5852 20.4022 18.0549 21.3616C17.5246 22.321 17.0973 23.1122 17.1054 23.1199C17.1135 23.1275 17.3508 22.9108 17.6325 22.6383C18.7369 21.5703 19.4755 20.8521 20.6597 19.695C21.7824 18.598 23.0235 17.3875 26.8369 13.6702C27.5608 12.9645 28.3999 12.1503 28.7016 11.861C29.0032 11.5717 29.2788 11.2961 29.314 11.2487C29.3492 11.2014 29.4001 11.1639 29.4271 11.1654C29.4542 11.167 30.1067 11.8326 30.8773 12.6445C31.6478 13.4565 32.3819 14.2292 32.5085 14.3618C34.1924 16.124 38.0942 20.216 38.5208 20.6672C39.7888 22.0081 40.8809 23.1374 40.8959 23.1232C40.9047 23.1149 40.7002 22.6987 40.4414 22.1984C40.1827 21.6981 39.6284 20.6152 39.2097 19.7921C38.275 17.9549 36.9855 15.4253 36.5841 14.6416C36.4199 14.3209 35.9286 13.3589 35.4925 12.5037C35.0563 11.6485 34.2127 9.99549 33.6179 8.83031C33.023 7.66513 32.2068 6.06458 31.8041 5.27354C31.4013 4.4825 30.9008 3.50293 30.6918 3.09673C30.4829 2.69052 30.1265 1.99082 29.8999 1.54186C29.6733 1.09289 29.4826 0.720028 29.476 0.713226C29.4693 0.706462 29.455 0.715208 29.4441 0.732662ZM29.0221 17.9957C28.5214 18.4549 27.0168 19.8486 25.0673 21.6591C24.3648 22.3115 22.7145 23.8415 21.4001 25.0589C20.0856 26.2764 18.5095 27.7373 17.8976 28.3054C17.2857 28.8735 15.7096 30.3341 14.3952 31.5513C13.0807 32.7685 11.5139 34.2202 10.9134 34.7774C10.3128 35.3346 8.73669 36.7953 7.41091 38.0235C4.67724 40.5559 3.1013 42.0169 1.64635 43.3675C1.09338 43.8808 0.605093 44.3328 0.561292 44.372C0.51745 44.4112 0.487741 44.4489 0.495322 44.4558C0.507437 44.4667 2.04043 44.4348 8.66767 44.2858L10.3571 44.2478L12.543 46.315C13.7452 47.452 17.0726 50.6126 19.9372 53.3385C22.8017 56.0643 26.0772 59.1772 27.2161 60.256L29.2867 62.2173L30.6175 60.9751C31.3494 60.2919 32.4861 59.2343 33.1434 58.625C33.8007 58.0156 34.9782 56.9219 35.7601 56.1944C36.542 55.467 38.5312 53.6233 40.1807 52.0973C41.8301 50.5713 43.1745 49.3097 43.1681 49.2937C43.1244 49.1847 28.0477 34.996 27.9383 34.961C27.9202 34.9552 27.0444 35.7527 25.9922 36.7331L24.079 38.5158L29.8679 44.0026C33.0518 47.0204 35.6626 49.5056 35.6696 49.5254C35.6801 49.5555 31.5225 53.4772 29.7941 55.0676L29.2878 55.5335L28.5359 54.815C26.9398 53.2895 17.213 44.039 15.0567 41.9958L12.7882 39.8462L14.7866 37.9768C15.8858 36.9486 17.8513 35.108 19.1544 33.8864C22.3971 30.8467 26.9771 26.5599 28.3254 25.3026L29.4401 24.2631L33.2487 27.8875C35.3434 29.881 39.0563 33.4115 41.4995 35.7331L45.9417 39.9543L47.557 39.9796C48.4455 39.9935 50.0253 40.0162 51.0678 40.0299L52.9633 40.0549L51.5411 38.6988C50.7589 37.953 49.4331 36.6869 48.5949 35.8853C47.7567 35.0837 47.0616 34.419 47.0503 34.4081C44.8768 32.3334 38.1381 25.8865 35.2467 23.1157C33.7072 21.6405 31.7905 19.8097 30.9873 19.0473C30.184 18.2848 29.515 17.643 29.5006 17.621C29.4862 17.599 29.2708 17.7676 29.0221 17.9957ZM102.463 28.1887C98.572 28.461 95.0726 30.4536 92.983 33.5866C91.6382 35.6029 90.9946 37.9062 91.07 40.433C91.1073 41.6824 91.2929 42.6918 91.6954 43.8345C92.8916 47.2305 95.4202 49.7756 98.9276 51.114C99.8799 51.4773 100.783 51.702 101.956 51.8674C102.542 51.95 104.652 51.9384 105.356 51.8487C107.719 51.5474 109.613 50.8069 111.166 49.5771C113.787 47.501 115.183 44.4837 115.272 40.7051C115.291 39.8562 115.287 39.782 115.214 39.6556C115.098 39.4556 114.805 39.2838 114.492 39.2324C114.127 39.1724 104.087 39.1714 103.791 39.2313C103.49 39.2923 103.224 39.478 103.072 39.7333L102.945 39.9471L102.933 41.1456C102.919 42.4878 102.933 42.5859 103.192 42.871C103.271 42.9576 103.43 43.0676 103.551 43.1194L103.769 43.2124L106.478 43.2234C107.969 43.2295 109.188 43.2424 109.188 43.2521C109.188 43.2618 109.13 43.4405 109.059 43.6492C108.55 45.1524 107.305 46.3538 105.692 46.9008C104.923 47.1613 103.72 47.2895 102.883 47.2001C101.111 47.0105 99.726 46.2736 98.5572 44.8989C97.6994 43.89 97.1536 42.6624 96.9692 41.3271C96.809 40.168 96.8689 38.9342 97.1336 37.9445C97.5036 36.5606 98.2025 35.4198 99.2647 34.4662C100.144 33.6764 101.054 33.2203 102.225 32.9823C102.765 32.8725 104.231 32.8831 104.807 33.0009C106.384 33.3235 107.458 34.0498 108.324 35.3785C108.635 35.8561 108.843 36.057 109.188 36.2118L109.456 36.3321L111.573 36.3435C113.832 36.3556 113.999 36.3449 114.283 36.1715C114.686 35.9247 114.769 35.535 114.544 34.9327C114.242 34.1201 113.532 32.9073 112.888 32.1018C112.562 31.6936 111.53 30.7192 111.104 30.4176C109.393 29.2062 107.613 28.5371 105.38 28.2666C104.634 28.1763 103.191 28.1377 102.463 28.1887ZM63.456 28.579C63.252 28.618 62.9781 28.7594 62.8442 28.8946C62.7943 28.945 62.7109 29.0735 62.6588 29.1801L62.5641 29.374L62.5519 39.9277C62.5425 48.0732 62.5511 50.5336 62.5896 50.7101C62.6618 51.0414 62.8403 51.2702 63.138 51.4134L63.3823 51.5309H65.4455H67.5087L67.6941 51.4391C67.9475 51.3135 68.0542 51.2147 68.1824 50.9867L68.2916 50.7924L68.3041 40.1804C68.3131 32.5913 68.3039 29.5117 68.2716 29.3696C68.1922 29.0204 67.9429 28.7515 67.5705 28.6135C67.4567 28.5713 67.0264 28.5585 65.5308 28.5524C64.4883 28.5481 63.5547 28.5601 63.456 28.579ZM72.7765 28.5784C72.3667 28.6557 72.03 28.9321 71.9199 29.2816C71.8281 29.5735 71.8252 32.2367 71.9164 32.5253C71.9921 32.7645 72.175 32.9766 72.4255 33.1155L72.6181 33.2223L75.2141 33.2418L77.81 33.2612L77.8306 42.0073C77.8496 50.0768 77.8565 50.7646 77.9202 50.8969C78.036 51.1378 78.3083 51.3834 78.5571 51.4712C78.771 51.5467 78.8706 51.5504 80.7118 51.5504C82.3934 51.5504 82.6693 51.5421 82.8527 51.4862C83.1217 51.4043 83.3599 51.2116 83.4824 50.9769L83.5787 50.7924L83.5993 42.0268L83.6199 33.2612L86.2158 33.2418C88.1666 33.2271 88.8406 33.2102 88.9279 33.1737C89.2764 33.0277 89.4951 32.7334 89.5744 32.3037C89.6065 32.1299 89.6167 31.6174 89.6055 30.7295C89.5915 29.6081 89.5786 29.3866 89.5186 29.2358C89.4164 28.9789 89.2342 28.7916 88.9655 28.6671L88.7294 28.5577L80.8386 28.5519C76.4986 28.5487 72.8707 28.5606 72.7765 28.5784Z" fill="white"/>
</svg>
