<svg width="95" height="119" viewBox="0 0 95 119" fill="none" xmlns="http://www.w3.org/2000/svg">
<path fill-rule="evenodd" clip-rule="evenodd" d="M64.7945 0.157472C64.6852 0.332089 61.0776 6.8537 59.7568 9.26418C59.3159 10.0688 58.2693 11.9665 57.4311 13.4812C56.5928 14.9958 55.5669 16.8547 55.1512 17.6121C54.7355 18.3694 53.6889 20.2671 52.8251 21.8291C51.9615 23.3911 50.8939 25.3274 50.4527 26.1321C50.0114 26.9368 48.9439 28.8731 48.0804 30.4352C47.2169 31.9972 45.4311 35.2309 44.1121 37.6212C42.7931 40.0116 40.7533 43.7052 39.5791 45.8293C38.405 47.9534 37.4591 49.7051 37.4771 49.7221C37.4951 49.739 38.0203 49.2592 38.6441 48.6559C41.089 46.2913 42.7244 44.7013 45.3462 42.1394C47.8317 39.7108 50.5796 37.0308 59.0222 28.8008C60.6249 27.2383 62.4827 25.4359 63.1506 24.7952C63.8184 24.1547 64.4286 23.5447 64.5065 23.4398C64.5844 23.3349 64.6971 23.2519 64.757 23.2554C64.8168 23.2588 66.2616 24.7324 67.9675 26.53C69.6735 28.3276 71.2987 30.0385 71.579 30.332C75.307 34.2335 83.9456 43.2931 84.8902 44.292C87.6974 47.2607 90.1152 49.7609 90.1484 49.7295C90.1679 49.7111 89.7151 48.7897 89.1423 47.682C88.5695 46.5742 87.3423 44.1769 86.4153 42.3546C84.3459 38.2869 81.491 32.6866 80.6023 30.9515C80.2387 30.2415 79.1511 28.1115 78.1854 26.2182C77.2198 24.3248 75.3522 20.6651 74.0352 18.0854C72.7182 15.5057 70.9111 11.9622 70.0194 10.2108C69.1277 8.45951 68.0195 6.29077 67.5569 5.39144C67.0943 4.4921 66.3054 2.94301 65.8037 1.949C65.3021 0.954999 64.8797 0.129502 64.8651 0.114441C64.8504 0.0994666 64.8187 0.11883 64.7945 0.157472ZM63.8602 38.3774C62.7516 39.3939 59.4206 42.4795 55.1045 46.4879C53.5491 47.9324 49.8955 51.3197 46.9853 54.0151C44.0752 56.7106 40.5857 59.9449 39.231 61.2027C37.8763 62.4604 34.3869 65.6942 31.4767 68.3889C28.5666 71.0838 25.0977 74.2979 23.768 75.5315C22.4384 76.7651 18.949 79.9992 16.0137 82.7182C9.96145 88.3249 6.47238 91.5595 3.25115 94.5497C2.02688 95.6862 0.945842 96.687 0.848867 96.7737C0.751802 96.8605 0.686026 96.944 0.702811 96.9591C0.729632 96.9834 4.12364 96.9128 18.7961 96.5827L22.5365 96.4987L27.376 101.075C30.0377 103.593 37.4044 110.59 43.7465 116.625C50.0885 122.66 57.3404 129.552 59.8617 131.94L64.446 136.283L67.3923 133.532C69.0129 132.02 71.5294 129.678 72.9847 128.329C74.4399 126.98 77.0469 124.559 78.778 122.948C80.509 121.338 84.9131 117.256 88.5651 113.877C92.2169 110.499 95.1932 107.706 95.179 107.67C95.0823 107.429 61.7029 76.0156 61.4607 75.938C61.4206 75.9252 59.4818 77.6908 57.1521 79.8615L52.9164 83.8082L65.7328 95.9559C72.7819 102.637 78.562 108.139 78.5775 108.183C78.601 108.25 69.3962 116.932 65.5694 120.453L64.4485 121.485L62.7839 119.894C59.2502 116.517 37.7152 96.0364 32.9412 91.5127L27.9189 86.7536L32.3434 82.6149C34.7769 80.3386 39.1284 76.2633 42.0134 73.5589C49.1926 66.8291 59.3327 57.3382 62.3178 54.5545L64.7857 52.2531L73.2178 60.2775C77.8555 64.691 86.0756 72.5074 91.4848 77.6475L101.32 86.993L104.896 87.049C106.863 87.0799 110.361 87.1301 112.669 87.1605L116.865 87.2158L113.717 84.2135C111.985 82.5621 109.05 79.7591 107.194 77.9843C105.338 76.2096 103.799 74.7379 103.774 74.714C98.9621 70.1205 84.0429 55.8474 77.6413 49.7128C74.233 46.4468 69.9895 42.3935 68.2111 40.7055C66.4327 39.0174 64.9516 37.5965 64.9196 37.5477C64.8877 37.499 64.411 37.8724 63.8602 38.3774Z" fill="#F4E7FF"/>
</svg>
