<svg width="36" height="36" viewBox="0 0 36 36" fill="none" xmlns="http://www.w3.org/2000/svg">
<path d="M26.3208 3.17271C23.7883 1.70754 20.9133 0.9382 17.9875 0.942708C8.78247 0.942708 1.3208 8.40437 1.3208 17.6094C1.3208 20.276 1.94747 22.796 3.05913 25.031C3.3558 25.6244 3.45413 26.3027 3.28247 26.9444L2.2908 30.6544C2.19295 31.0214 2.19332 31.4077 2.29187 31.7746C2.39042 32.1415 2.58368 32.476 2.85229 32.7446C3.12089 33.0132 3.45539 33.2064 3.82225 33.305C4.1891 33.4035 4.57542 33.4039 4.94247 33.306L8.65247 32.3144C9.29648 32.1523 9.97751 32.2311 10.5675 32.536C12.8723 33.6838 15.4126 34.2795 17.9875 34.276C27.1925 34.276 34.6541 26.8144 34.6541 17.6094C34.6541 14.5744 33.8425 11.726 32.4241 9.27604" stroke="#56C2FF" stroke-width="1.5" stroke-linecap="round"/>
</svg>
