<svg width="41" height="41" viewBox="0 0 41 41" fill="none" xmlns="http://www.w3.org/2000/svg">
<path d="M20.5977 25.6094C23.3591 25.6094 25.5977 23.3708 25.5977 20.6094C25.5977 17.848 23.3591 15.6094 20.5977 15.6094C17.8362 15.6094 15.5977 17.848 15.5977 20.6094C15.5977 23.3708 17.8362 25.6094 20.5977 25.6094Z" stroke="#56C2FF" stroke-width="1.5"/>
<path d="M6.6991 18.3427C7.48743 18.836 7.9941 19.6794 7.9941 20.6094C7.9941 21.5394 7.48743 22.3827 6.6991 22.876C6.1641 23.2144 5.81743 23.4827 5.57243 23.8027C5.30592 24.1501 5.11045 24.5466 4.99721 24.9695C4.88396 25.3925 4.85516 25.8336 4.91243 26.2677C4.9991 26.9244 5.38743 27.5977 6.16243 28.9427C6.94076 30.2877 7.3291 30.9594 7.8541 31.3644C8.20149 31.6309 8.59799 31.8263 9.02094 31.9396C9.44389 32.0528 9.88501 32.0816 10.3191 32.0244C10.7191 31.971 11.1241 31.8077 11.6841 31.511C12.0849 31.2917 12.5348 31.1779 12.9917 31.1802C13.4485 31.1825 13.8973 31.3009 14.2958 31.5244C15.1008 31.991 15.5791 32.8494 15.6124 33.7794C15.6358 34.4127 15.6958 34.846 15.8508 35.2177C16.0183 35.6224 16.2639 35.9901 16.5736 36.2998C16.8834 36.6095 17.2511 36.8552 17.6558 37.0227C18.2674 37.276 19.0441 37.276 20.5974 37.276C22.1508 37.276 22.9274 37.276 23.5391 37.0227C23.9438 36.8552 24.3115 36.6095 24.6212 36.2998C24.9309 35.9901 25.1766 35.6224 25.3441 35.2177C25.4974 34.846 25.5591 34.4127 25.5824 33.7794C25.6158 32.8494 26.0941 31.9894 26.8991 31.5244C27.2976 31.3009 27.7464 31.1825 28.2032 31.1802C28.6601 31.1779 29.11 31.2917 29.5108 31.511C30.0708 31.8077 30.4774 31.971 30.8774 32.0244C31.7536 32.1396 32.6396 31.9022 33.3408 31.3644C33.8658 30.961 34.2541 30.2877 35.0308 28.9427C35.3774 28.3427 35.6458 27.8777 35.8458 27.4877M34.4958 22.8777C34.1056 22.6405 33.782 22.3081 33.5555 21.9116C33.329 21.5151 33.2069 21.0676 33.2008 20.611C33.2008 19.6794 33.7074 18.836 34.4958 18.341C35.0308 18.0044 35.3758 17.736 35.6224 17.416C35.8889 17.0686 36.0844 16.6721 36.1977 16.2492C36.3109 15.8262 36.3397 15.3851 36.2824 14.951C36.1958 14.2944 35.8074 13.621 35.0324 12.276C34.2541 10.931 33.8658 10.2594 33.3408 9.85435C32.9934 9.58784 32.5969 9.39238 32.1739 9.27913C31.751 9.16589 31.3099 9.13708 30.8758 9.19435C30.4758 9.24769 30.0708 9.41102 29.5091 9.70769C29.1085 9.92671 28.6589 10.0404 28.2024 10.0381C27.7459 10.0357 27.2974 9.91746 26.8991 9.69435C26.5065 9.46086 26.1797 9.13142 25.9494 8.73697C25.7191 8.34252 25.5928 7.896 25.5824 7.43935C25.5591 6.80602 25.4991 6.37269 25.3441 6.00102C25.1766 5.59632 24.9309 5.22861 24.6212 4.91889C24.3115 4.60918 23.9438 4.36354 23.5391 4.19602C22.9274 3.94269 22.1508 3.94269 20.5974 3.94269C19.0441 3.94269 18.2674 3.94269 17.6558 4.19602C17.2511 4.36354 16.8834 4.60918 16.5736 4.91889C16.2639 5.22861 16.0183 5.59632 15.8508 6.00102C15.6974 6.37269 15.6358 6.80602 15.6124 7.43935C15.602 7.896 15.4758 8.34252 15.2455 8.73697C15.0151 9.13142 14.6883 9.46086 14.2958 9.69435C13.8973 9.91776 13.4485 10.0362 12.9917 10.0385C12.5348 10.0409 12.0849 9.92701 11.6841 9.70769C11.1241 9.41102 10.7174 9.24769 10.3174 9.19435C9.4413 9.07914 8.55526 9.31653 7.8541 9.85435C7.33076 10.2594 6.94076 10.931 6.1641 12.276C5.81743 12.876 5.5491 13.341 5.3491 13.731" stroke="#56C2FF" stroke-width="1.5" stroke-linecap="round"/>
</svg>
