<svg width="41" height="41" viewBox="0 0 41 41" fill="none" xmlns="http://www.w3.org/2000/svg">
<path d="M23.9313 7.27605C23.9313 8.16011 23.5801 9.00795 22.955 9.63307C22.3299 10.2582 21.482 10.6094 20.598 10.6094C19.7139 10.6094 18.8661 10.2582 18.241 9.63307C17.6158 9.00795 17.2646 8.16011 17.2646 7.27605C17.2646 6.392 17.6158 5.54415 18.241 4.91903C18.8661 4.29391 19.7139 3.94272 20.598 3.94272C21.482 3.94272 22.3299 4.29391 22.955 4.91903C23.5801 5.54415 23.9313 6.392 23.9313 7.27605Z" stroke="#56C2FF" stroke-width="1.5"/>
<path d="M17.9712 30.2061L19.0562 30.8261L17.9728 30.2044L17.9712 30.2061ZM20.5978 25.6094L21.6828 24.9894C21.5734 24.7982 21.4155 24.6393 21.225 24.5288C21.0344 24.4183 20.8181 24.3601 20.5978 24.3601C20.3776 24.3601 20.1612 24.4183 19.9707 24.5288C19.7801 24.6393 19.6222 24.7982 19.5128 24.9894L20.5978 25.6094ZM23.2245 30.2044L22.1395 30.8244L23.2228 30.2044H23.2245ZM17.8395 16.1477C18.1695 16.1826 18.4998 16.0851 18.7578 15.8764C19.0158 15.6678 19.1804 15.3652 19.2153 15.0352C19.2502 14.7053 19.1526 14.3749 18.944 14.1169C18.7354 13.8589 18.4328 13.6943 18.1028 13.6594L17.8395 16.1461V16.1477ZM23.0928 13.6594C22.7631 13.6943 22.4607 13.8588 22.2522 14.1167C22.0437 14.3745 21.9462 14.7046 21.9812 15.0344C22.0161 15.3641 22.1806 15.6665 22.4384 15.875C22.6963 16.0835 23.0264 16.181 23.3562 16.1461L23.0928 13.6594ZM10.2828 19.8761L13.9078 21.0861L14.6978 18.7144L11.0728 17.5044L10.2828 19.8761ZM14.4595 22.2544L12.3812 27.6561L14.7145 28.5544L16.7928 23.1511L14.4595 22.2544ZM30.1228 17.5044L26.4978 18.7144L27.2878 21.0861L30.9128 19.8761L30.1228 17.5044ZM24.4028 23.1511L26.4812 28.5544L28.8145 27.6561L26.7362 22.2544L24.4028 23.1511ZM19.0562 30.8261L21.6828 26.2294L19.5128 24.9894L16.8862 29.5844L19.0562 30.8261ZM28.9145 12.5511L25.7528 13.2277L26.2762 15.6727L29.4395 14.9944L28.9145 12.5511ZM15.4478 13.2277L12.2812 12.5494L11.7578 14.9927L14.9212 15.6711L15.4445 13.2261L15.4478 13.2277ZM19.5145 26.2311L22.1412 30.8277L24.3112 29.5861L21.6845 24.9911L19.5145 26.2311ZM25.7528 13.2277L25.4095 13.3011L25.9162 15.7494L26.2762 15.6727L25.7528 13.2277ZM14.9212 15.6711L15.2812 15.7477L15.7878 13.2977L15.4445 13.2261L14.9212 15.6711ZM15.8395 32.6927C17.1695 32.6927 18.3978 31.9794 19.0562 30.8261L16.8862 29.5844C16.7809 29.7691 16.6286 29.9227 16.4448 30.0295C16.2609 30.1364 16.0521 30.1927 15.8395 30.1927V32.6927ZM26.4812 28.5544C26.5515 28.737 26.5764 28.934 26.5535 29.1283C26.5307 29.3227 26.4609 29.5085 26.3501 29.6698C26.2393 29.8311 26.091 29.9631 25.9178 30.0542C25.7446 30.1453 25.5518 30.1928 25.3562 30.1927V32.6927C25.9577 32.6929 26.5502 32.5466 27.0825 32.2664C27.6148 31.9863 28.0709 31.5808 28.4114 31.0849C28.7519 30.589 28.9665 30.0177 29.0367 29.4203C29.107 28.8229 29.0307 28.2174 28.8145 27.6561L26.4812 28.5544ZM26.4978 18.7144C26.1278 18.8377 25.7345 18.9594 25.4145 19.1561L26.7278 21.2844C26.7112 21.2927 26.7245 21.2827 26.8212 21.2461C26.9228 21.2077 27.0595 21.1627 27.2878 21.0861L26.4978 18.7144ZM26.7362 22.2544C26.6756 22.1015 26.6179 21.9476 26.5628 21.7927C26.5295 21.6944 26.5295 21.6777 26.5328 21.6944L24.0562 22.0344C24.1062 22.4061 24.2628 22.7877 24.4028 23.1511L26.7362 22.2544ZM25.4145 19.1561C24.9336 19.4527 24.5492 19.8826 24.3081 20.3936C24.067 20.9046 23.9794 21.4746 24.0562 22.0344L26.5328 21.6944C26.5222 21.6145 26.535 21.5333 26.5696 21.4605C26.6042 21.3877 26.6592 21.3266 26.7278 21.2844L25.4145 19.1561ZM31.0145 16.2677C31.0145 16.5414 30.9284 16.8081 30.7683 17.03C30.6083 17.252 30.3825 17.418 30.1228 17.5044L30.9128 19.8761C31.6703 19.6238 32.3293 19.1395 32.7962 18.4919C33.2632 17.8443 33.5145 17.0661 33.5145 16.2677H31.0145ZM12.3812 27.6561C12.165 28.2174 12.0887 28.8229 12.1589 29.4203C12.2291 30.0177 12.4438 30.589 12.7842 31.0849C13.1247 31.5808 13.5808 31.9863 14.1131 32.2664C14.6455 32.5466 15.238 32.6929 15.8395 32.6927V30.1927C15.6438 30.1928 15.451 30.1453 15.2779 30.0542C15.1047 29.9631 14.9563 29.8311 14.8455 29.6698C14.7348 29.5085 14.6649 29.3227 14.6421 29.1283C14.6193 28.934 14.6441 28.737 14.7145 28.5544L12.3812 27.6561ZM13.9078 21.0861C14.1362 21.1611 14.2728 21.2077 14.3745 21.2461C14.4712 21.2827 14.4828 21.2927 14.4678 21.2844L15.7812 19.1561C15.4612 18.9594 15.0678 18.8377 14.6978 18.7144L13.9078 21.0861ZM16.7912 23.1527C16.9328 22.7861 17.0878 22.4061 17.1395 22.0344L14.6628 21.6944C14.6645 21.6777 14.6645 21.6944 14.6328 21.7927C14.5778 21.9476 14.52 22.1015 14.4595 22.2544L16.7928 23.1511L16.7912 23.1527ZM14.4678 21.2844C14.5365 21.3266 14.5915 21.3877 14.6261 21.4605C14.6607 21.5333 14.6734 21.6145 14.6628 21.6944L17.1395 22.0344C17.2162 21.4746 17.1287 20.9046 16.8875 20.3936C16.6464 19.8826 16.262 19.4527 15.7812 19.1561L14.4678 21.2844ZM7.68115 16.2677C7.68115 17.9061 8.73115 19.3594 10.2828 19.8761L11.0728 17.5044C10.8132 17.418 10.5873 17.252 10.4273 17.03C10.2673 16.8081 10.1811 16.5414 10.1812 16.2677H7.68115ZM10.1812 16.2677C10.1812 15.4377 10.9478 14.8177 11.7578 14.9927L12.2812 12.5494C11.7266 12.4303 11.1541 12.4368 10.6023 12.5684C10.0506 12.6999 9.53527 12.9532 9.09409 13.3097C8.65291 13.6662 8.29705 14.1169 8.05257 14.6287C7.8081 15.1405 7.68119 15.7005 7.68115 16.2677H10.1812ZM22.1395 30.8244C22.4635 31.3914 22.9317 31.8644 23.4966 32.1922C24.0615 32.52 24.703 32.6927 25.3562 32.6927V30.1927C24.9228 30.1927 24.5228 29.9594 24.3095 29.5844L22.1395 30.8244ZM33.5145 16.2677C33.5144 15.7007 33.3875 15.1409 33.1431 14.6292C32.8988 14.1175 32.5431 13.667 32.1021 13.3105C31.6611 12.9541 31.146 12.7007 30.5945 12.569C30.0429 12.4373 29.4689 12.4323 28.9145 12.5511L29.4378 14.9927C29.6279 14.952 29.8247 14.9542 30.0138 14.9994C30.2029 15.0445 30.3795 15.1314 30.5307 15.2536C30.6819 15.3759 30.8038 15.5304 30.8875 15.7059C30.9712 15.8813 31.0146 16.0733 31.0145 16.2677H33.5145ZM18.1028 13.6594C17.3262 13.5777 16.5528 13.4577 15.7862 13.2994L15.2812 15.7477C16.1278 15.9227 16.9812 16.0561 17.8395 16.1477L18.1028 13.6594ZM25.4078 13.2994C24.6412 13.4577 23.8695 13.5777 23.0928 13.6594L23.3562 16.1461C24.215 16.0549 25.0688 15.9214 25.9145 15.7461L25.4095 13.3011L25.4078 13.2994Z" fill="#56C2FF"/>
<path d="M33.0212 25.6094C35.6595 26.936 37.2645 28.6894 37.2645 30.6094C37.2645 31.856 36.5878 33.0327 35.3912 34.0677M8.17449 25.6094C5.53615 26.936 3.93115 28.6894 3.93115 30.6094C3.93115 34.751 11.3928 38.1094 20.5978 38.1094C23.6328 38.1094 26.4812 37.7427 28.9312 37.106" stroke="#56C2FF" stroke-width="1.5" stroke-linecap="round"/>
</svg>
