<svg width="41" height="41" viewBox="0 0 41 41" fill="none" xmlns="http://www.w3.org/2000/svg">
<path d="M5.59766 37.2761H35.5977" stroke="#40C6FF" stroke-width="1.5" stroke-linecap="round" stroke-linejoin="round"/>
<path d="M5.59766 28.9427C5.59766 30.5144 5.59766 31.2994 6.08599 31.7877C6.57432 32.276 7.35932 32.276 8.93099 32.276C10.5027 32.276 11.2877 32.276 11.776 31.7877C12.2643 31.2994 12.2643 30.5144 12.2643 28.9427V18.9427C12.2643 17.371 12.2643 16.586 11.776 16.0977C11.2877 15.6094 10.5027 15.6094 8.93099 15.6094C7.35932 15.6094 6.57432 15.6094 6.08599 16.0977C5.59766 16.586 5.59766 17.371 5.59766 18.9427V22.276" stroke="#40C6FF" stroke-width="1.5" stroke-linecap="round"/>
<path d="M17.2644 12.2761C17.2644 10.7044 17.2644 9.91939 17.7527 9.43105C18.2411 8.94272 19.0261 8.94272 20.5977 8.94272C22.1694 8.94272 22.9544 8.94272 23.4427 9.43105C23.9311 9.91939 23.9311 10.7044 23.9311 12.2761V28.9427C23.9311 30.5144 23.9311 31.2994 23.4427 31.7877C22.9544 32.2761 22.1694 32.2761 20.5977 32.2761C19.0261 32.2761 18.2411 32.2761 17.7527 31.7877C17.2644 31.2994 17.2644 30.5144 17.2644 28.9427V12.2761Z" stroke="#40C6FF" stroke-width="1.5"/>
<path d="M35.5976 18.9427V28.9427C35.5976 30.5144 35.5976 31.2994 35.1092 31.7877C34.6209 32.2761 33.8359 32.2761 32.2642 32.2761C30.6926 32.2761 29.9076 32.2761 29.4192 31.7877C28.9309 31.2994 28.9309 30.5144 28.9309 28.9427V7.27605C28.9309 5.70439 28.9309 4.91939 29.4192 4.43105C29.9076 3.94272 30.6926 3.94272 32.2642 3.94272C33.8359 3.94272 34.6209 3.94272 35.1092 4.43105C35.5976 4.91939 35.5976 5.70439 35.5976 7.27605V12.2761" stroke="#40C6FF" stroke-width="1.5" stroke-linecap="round"/>
</svg>
