<svg width="36" height="26" viewBox="0 0 36 26" fill="none" xmlns="http://www.w3.org/2000/svg">
<path d="M35.0143 12.6094C35.017 14.7957 34.5883 16.9611 33.7526 18.9814C32.9169 21.0017 31.6907 22.8372 30.1443 24.3827M30.2493 0.942714C31.6698 2.39029 32.8146 4.08464 33.6276 5.94271M6.68092 24.5127C5.09547 22.9626 3.83629 21.1108 2.97758 19.0665C2.11887 17.0222 1.67799 14.8267 1.68092 12.6094C1.67812 10.4175 2.10905 8.24672 2.94887 6.22211C3.78869 4.19749 5.02081 2.35906 6.57426 0.812714M8.34759 12.5794C8.34759 9.98771 9.46926 7.63938 11.2843 5.94271M25.4893 6.01605C27.2559 7.70771 28.3476 10.0244 28.3476 12.5794C28.3476 15.166 27.2309 17.5077 25.4259 19.2027M11.3476 19.276C10.8044 18.7779 10.3207 18.2186 9.90592 17.6094" stroke="#40C6FF" stroke-width="1.5" stroke-linecap="round" stroke-linejoin="round"/>
<path d="M18.3475 15.9427C20.1884 15.9427 21.6808 14.4503 21.6808 12.6094C21.6808 10.7684 20.1884 9.27606 18.3475 9.27606C16.5065 9.27606 15.0142 10.7684 15.0142 12.6094C15.0142 14.4503 16.5065 15.9427 18.3475 15.9427Z" stroke="#40C6FF" stroke-width="1.5"/>
</svg>
