<svg width="24" height="24" viewBox="0 0 24 24" fill="none" xmlns="http://www.w3.org/2000/svg">
<path d="M2.39999 5.6C2.29398 5.5985 2.18873 5.61809 2.09035 5.65762C1.99198 5.69715 1.90244 5.75584 1.82694 5.83027C1.75145 5.90471 1.6915 5.99341 1.65058 6.09121C1.60966 6.18902 1.58859 6.29398 1.58859 6.4C1.58859 6.50602 1.60966 6.61098 1.65058 6.70879C1.6915 6.8066 1.75145 6.89529 1.82694 6.96973C1.90244 7.04416 1.99198 7.10285 2.09035 7.14238C2.18873 7.18191 2.29398 7.2015 2.39999 7.2H21.6C21.706 7.2015 21.8112 7.18191 21.9096 7.14238C22.008 7.10285 22.0975 7.04416 22.173 6.96973C22.2485 6.89529 22.3085 6.8066 22.3494 6.70879C22.3903 6.61098 22.4114 6.50602 22.4114 6.4C22.4114 6.29398 22.3903 6.18902 22.3494 6.09121C22.3085 5.99341 22.2485 5.90471 22.173 5.83027C22.0975 5.75584 22.008 5.69715 21.9096 5.65762C21.8112 5.61809 21.706 5.5985 21.6 5.6H2.39999ZM2.39999 11.2C2.29398 11.1985 2.18873 11.2181 2.09035 11.2576C1.99198 11.2971 1.90244 11.3558 1.82694 11.4303C1.75145 11.5047 1.6915 11.5934 1.65058 11.6912C1.60966 11.789 1.58859 11.894 1.58859 12C1.58859 12.106 1.60966 12.211 1.65058 12.3088C1.6915 12.4066 1.75145 12.4953 1.82694 12.5697C1.90244 12.6442 1.99198 12.7029 2.09035 12.7424C2.18873 12.7819 2.29398 12.8015 2.39999 12.8H21.6C21.706 12.8015 21.8112 12.7819 21.9096 12.7424C22.008 12.7029 22.0975 12.6442 22.173 12.5697C22.2485 12.4953 22.3085 12.4066 22.3494 12.3088C22.3903 12.211 22.4114 12.106 22.4114 12C22.4114 11.894 22.3903 11.789 22.3494 11.6912C22.3085 11.5934 22.2485 11.5047 22.173 11.4303C22.0975 11.3558 22.008 11.2971 21.9096 11.2576C21.8112 11.2181 21.706 11.1985 21.6 11.2H2.39999ZM2.39999 16.8C2.29398 16.7985 2.18873 16.8181 2.09035 16.8576C1.99198 16.8971 1.90244 16.9558 1.82694 17.0303C1.75145 17.1047 1.6915 17.1934 1.65058 17.2912C1.60966 17.389 1.58859 17.494 1.58859 17.6C1.58859 17.706 1.60966 17.811 1.65058 17.9088C1.6915 18.0066 1.75145 18.0953 1.82694 18.1697C1.90244 18.2442 1.99198 18.3029 2.09035 18.3424C2.18873 18.3819 2.29398 18.4015 2.39999 18.4H21.6C21.706 18.4015 21.8112 18.3819 21.9096 18.3424C22.008 18.3029 22.0975 18.2442 22.173 18.1697C22.2485 18.0953 22.3085 18.0066 22.3494 17.9088C22.3903 17.811 22.4114 17.706 22.4114 17.6C22.4114 17.494 22.3903 17.389 22.3494 17.2912C22.3085 17.1934 22.2485 17.1047 22.173 17.0303C22.0975 16.9558 22.008 16.8971 21.9096 16.8576C21.8112 16.8181 21.706 16.7985 21.6 16.8H2.39999Z" fill="white"/>
</svg>
