<svg width="29" height="29" viewBox="0 0 29 29" fill="none" xmlns="http://www.w3.org/2000/svg">
<mask id="mask0_1_4276" style="mask-type:alpha" maskUnits="userSpaceOnUse" x="0" y="0" width="29" height="29">
<rect x="0.652344" y="0.907715" width="28" height="28" fill="#D9D9D9"/>
</mask>
<g mask="url(#mask0_1_4276)">
<path d="M23.9273 25.4077C21.419 25.4077 18.9739 24.8487 16.5919 23.7306C14.21 22.6126 12.1003 21.1348 10.2628 19.2973C8.42526 17.4598 6.94748 15.3501 5.82943 12.9681C4.71137 10.5862 4.15234 8.14105 4.15234 5.63271C4.15234 5.28271 4.26901 4.99105 4.50234 4.75771C4.73568 4.52438 5.02734 4.40771 5.37734 4.40771H10.1023C10.3746 4.40771 10.6176 4.49521 10.8315 4.67021C11.0454 4.84521 11.1718 5.06883 11.2107 5.34105L11.969 9.42438C12.0079 9.6966 12.003 9.94452 11.9544 10.1681C11.9058 10.3917 11.794 10.591 11.619 10.766L8.78984 13.6244C9.60651 15.0244 10.6322 16.3369 11.8669 17.5619C13.1016 18.7869 14.4579 19.8466 15.9357 20.741L18.6773 17.9994C18.8523 17.8244 19.0808 17.6931 19.3628 17.6056C19.6447 17.5181 19.9218 17.4938 20.194 17.5327L24.219 18.3494C24.4912 18.4077 24.7148 18.539 24.8898 18.7431C25.0648 18.9473 25.1523 19.1855 25.1523 19.4577V24.1827C25.1523 24.5327 25.0357 24.8244 24.8023 25.0577C24.569 25.291 24.2773 25.4077 23.9273 25.4077ZM7.68151 11.4077L9.60651 9.48271L9.11068 6.74105H6.51484C6.61207 7.53827 6.74818 8.32577 6.92318 9.10355C7.09818 9.88133 7.35095 10.6494 7.68151 11.4077ZM18.1232 21.8494C18.8815 22.1799 19.6544 22.4424 20.4419 22.6369C21.2294 22.8313 22.0218 22.9577 22.819 23.016V20.4494L20.0773 19.8952L18.1232 21.8494Z" fill="#56FFEB"/>
</g>
</svg>
