<svg width="29" height="29" viewBox="0 0 29 29" fill="none" xmlns="http://www.w3.org/2000/svg">
<mask id="mask0_1_4281" style="mask-type:alpha" maskUnits="userSpaceOnUse" x="0" y="0" width="29" height="29">
<rect x="0.652344" y="0.688965" width="28" height="28" fill="#D9D9D9"/>
</mask>
<g mask="url(#mask0_1_4281)">
<path d="M5.31899 24.0221C4.67732 24.0221 4.12802 23.7937 3.67107 23.3367C3.21413 22.8798 2.98566 22.3305 2.98566 21.6888V7.6888C2.98566 7.04714 3.21413 6.49783 3.67107 6.04089C4.12802 5.58394 4.67732 5.35547 5.31899 5.35547H23.9857C24.6273 5.35547 25.1766 5.58394 25.6336 6.04089C26.0905 6.49783 26.319 7.04714 26.319 7.6888V21.6888C26.319 22.3305 26.0905 22.8798 25.6336 23.3367C25.1766 23.7937 24.6273 24.0221 23.9857 24.0221H5.31899ZM14.6523 15.8555L5.31899 10.0221V21.6888H23.9857V10.0221L14.6523 15.8555ZM14.6523 13.5221L23.9857 7.6888H5.31899L14.6523 13.5221ZM5.31899 10.0221V7.6888V21.6888V10.0221Z" fill="#56FFEB"/>
</g>
</svg>
