<svg width="25" height="24" viewBox="0 0 25 24" fill="none" xmlns="http://www.w3.org/2000/svg">
<path d="M6.23566 18.1058L14.9857 14.0225L19.069 5.27246L10.319 9.35579L6.23566 18.1058ZM12.6523 12.8558C12.3218 12.8558 12.0447 12.744 11.8211 12.5204C11.5975 12.2968 11.4857 12.0197 11.4857 11.6891C11.4857 11.3586 11.5975 11.0815 11.8211 10.8579C12.0447 10.6343 12.3218 10.5225 12.6523 10.5225C12.9829 10.5225 13.26 10.6343 13.4836 10.8579C13.7072 11.0815 13.819 11.3586 13.819 11.6891C13.819 12.0197 13.7072 12.2968 13.4836 12.5204C13.26 12.744 12.9829 12.8558 12.6523 12.8558ZM12.6523 23.3558C11.0384 23.3558 9.52177 23.0495 8.10232 22.437C6.68288 21.8245 5.44816 20.9933 4.39816 19.9433C3.34816 18.8933 2.51691 17.6586 1.90441 16.2391C1.29191 14.8197 0.985657 13.303 0.985657 11.6891C0.985657 10.0752 1.29191 8.55857 1.90441 7.13913C2.51691 5.71968 3.34816 4.48496 4.39816 3.43496C5.44816 2.38496 6.68288 1.55371 8.10232 0.941211C9.52177 0.328711 11.0384 0.0224609 12.6523 0.0224609C14.2662 0.0224609 15.7829 0.328711 17.2023 0.941211C18.6218 1.55371 19.8565 2.38496 20.9065 3.43496C21.9565 4.48496 22.7877 5.71968 23.4002 7.13913C24.0127 8.55857 24.319 10.0752 24.319 11.6891C24.319 13.303 24.0127 14.8197 23.4002 16.2391C22.7877 17.6586 21.9565 18.8933 20.9065 19.9433C19.8565 20.9933 18.6218 21.8245 17.2023 22.437C15.7829 23.0495 14.2662 23.3558 12.6523 23.3558ZM12.6523 21.0225C15.2579 21.0225 17.4648 20.1183 19.2732 18.31C21.0815 16.5016 21.9857 14.2947 21.9857 11.6891C21.9857 9.08357 21.0815 6.87663 19.2732 5.0683C17.4648 3.25996 15.2579 2.35579 12.6523 2.35579C10.0468 2.35579 7.83982 3.25996 6.03149 5.0683C4.22316 6.87663 3.31899 9.08357 3.31899 11.6891C3.31899 14.2947 4.22316 16.5016 6.03149 18.31C7.83982 20.1183 10.0468 21.0225 12.6523 21.0225Z" fill="#56FFEB"/>
</svg>
