<svg width="29" height="29" viewBox="0 0 29 29" fill="none" xmlns="http://www.w3.org/2000/svg">
<mask id="mask0_1_4276" style="mask-type:alpha" maskUnits="userSpaceOnUse" x="0" y="0" width="29" height="29">
<rect x="0.652344" y="0.688965" width="28" height="28" fill="#D9D9D9"/>
</mask>
<g mask="url(#mask0_1_4276)">
<path d="M23.9273 25.189C21.419 25.189 18.9739 24.6299 16.5919 23.5119C14.21 22.3938 12.1003 20.916 10.2628 19.0785C8.42526 17.241 6.94748 15.1313 5.82943 12.7494C4.71137 10.3674 4.15234 7.9223 4.15234 5.41396C4.15234 5.06396 4.26901 4.7723 4.50234 4.53896C4.73568 4.30563 5.02734 4.18896 5.37734 4.18896H10.1023C10.3746 4.18896 10.6176 4.27646 10.8315 4.45146C11.0454 4.62646 11.1718 4.85008 11.2107 5.1223L11.969 9.20563C12.0079 9.47785 12.003 9.72577 11.9544 9.94938C11.9058 10.173 11.794 10.3723 11.619 10.5473L8.78984 13.4056C9.60651 14.8056 10.6322 16.1181 11.8669 17.3431C13.1016 18.5681 14.4579 19.6279 15.9357 20.5223L18.6773 17.7806C18.8523 17.6056 19.0808 17.4744 19.3628 17.3869C19.6447 17.2994 19.9218 17.2751 20.194 17.314L24.219 18.1306C24.4912 18.189 24.7148 18.3202 24.8898 18.5244C25.0648 18.7285 25.1523 18.9667 25.1523 19.239V23.964C25.1523 24.314 25.0357 24.6056 24.8023 24.839C24.569 25.0723 24.2773 25.189 23.9273 25.189ZM7.68151 11.189L9.60651 9.26396L9.11068 6.5223H6.51484C6.61207 7.31952 6.74818 8.10702 6.92318 8.8848C7.09818 9.66258 7.35095 10.4306 7.68151 11.189ZM18.1232 21.6306C18.8815 21.9612 19.6544 22.2237 20.4419 22.4181C21.2294 22.6126 22.0218 22.739 22.819 22.7973V20.2306L20.0773 19.6765L18.1232 21.6306Z" fill="#56FFEB"/>
</g>
</svg>
