<svg width="61" height="61" viewBox="0 0 61 61" fill="none" xmlns="http://www.w3.org/2000/svg">
<circle cx="30.666" cy="30.0508" r="29" stroke="#D9D9D9" stroke-width="2"/>
<mask id="path-2-inside-1_142_896" fill="white">
<path d="M43.2177 34.8789H49.2777V16.8789H43.2177M37.1577 16.8789H23.5227C22.2652 16.8789 21.1896 17.6289 20.7351 18.7089L16.1598 29.2839C16.0234 29.6289 15.9477 29.9889 15.9477 30.3789V33.3789C15.9477 34.1746 16.2669 34.9376 16.8352 35.5002C17.4034 36.0628 18.1741 36.3789 18.9777 36.3789H28.5373L27.0981 43.2339C27.0678 43.3839 27.0526 43.5339 27.0526 43.6989C27.0526 44.3289 27.3102 44.8839 27.7192 45.2889L29.3251 46.8789L39.2938 36.9939C39.8544 36.4539 40.1877 35.7039 40.1877 34.8789V19.8789C40.1877 18.2139 38.8242 16.8789 37.1577 16.8789Z"/>
</mask>
<path d="M43.2177 34.8789H49.2777V16.8789H43.2177M37.1577 16.8789H23.5227C22.2652 16.8789 21.1896 17.6289 20.7351 18.7089L16.1598 29.2839C16.0234 29.6289 15.9477 29.9889 15.9477 30.3789V33.3789C15.9477 34.1746 16.2669 34.9376 16.8352 35.5002C17.4034 36.0628 18.1741 36.3789 18.9777 36.3789H28.5373L27.0981 43.2339C27.0678 43.3839 27.0526 43.5339 27.0526 43.6989C27.0526 44.3289 27.3102 44.8839 27.7192 45.2889L29.3251 46.8789L39.2938 36.9939C39.8544 36.4539 40.1877 35.7039 40.1877 34.8789V19.8789C40.1877 18.2139 38.8242 16.8789 37.1577 16.8789Z" fill="#D9D9D9"/>
<path d="M49.2777 34.8789V35.8789H50.2777V34.8789H49.2777ZM49.2777 16.8789H50.2777V15.8789H49.2777V16.8789ZM20.7351 18.7089L21.6529 19.106L21.6568 19.0968L20.7351 18.7089ZM16.1598 29.2839L15.242 28.8868L15.2357 28.9015L15.2298 28.9164L16.1598 29.2839ZM15.9477 33.3789H14.9477H15.9477ZM28.5373 36.3789L29.516 36.5844L29.7691 35.3789H28.5373V36.3789ZM27.0981 43.2339L26.1194 43.0284L26.1179 43.0359L27.0981 43.2339ZM27.7192 45.2889L28.4228 44.5783L28.4228 44.5783L27.7192 45.2889ZM29.3251 46.8789L28.6216 47.5895L29.3257 48.2867L30.0293 47.589L29.3251 46.8789ZM39.2938 36.9939L38.6001 36.2737L38.5949 36.2787L38.5897 36.2838L39.2938 36.9939ZM43.2177 35.8789H49.2777V33.8789H43.2177V35.8789ZM50.2777 34.8789V16.8789H48.2777V34.8789H50.2777ZM49.2777 15.8789H43.2177V17.8789H49.2777V15.8789ZM37.1577 15.8789H23.5227V17.8789H37.1577V15.8789ZM23.5227 15.8789C21.8587 15.8789 20.4224 16.8739 19.8134 18.321L21.6568 19.0968C21.9568 18.3839 22.6718 17.8789 23.5227 17.8789V15.8789ZM19.8173 18.3118L15.242 28.8868L17.0776 29.681L21.6529 19.106L19.8173 18.3118ZM15.2298 28.9164C15.0508 29.3692 14.9477 29.8536 14.9477 30.3789H16.9477C16.9477 30.1242 16.9961 29.8886 17.0898 29.6515L15.2298 28.9164ZM14.9477 30.3789V33.3789H16.9477V30.3789H14.9477ZM14.9477 33.3789C14.9477 34.443 15.3747 35.4615 16.1316 36.2108L17.5387 34.7896C17.1591 34.4138 16.9477 33.9061 16.9477 33.3789H14.9477ZM16.1316 36.2108C16.8881 36.9599 17.9121 37.3789 18.9777 37.3789V35.3789C18.4361 35.3789 17.9187 35.1658 17.5387 34.7896L16.1316 36.2108ZM18.9777 37.3789H28.5373V35.3789H18.9777V37.3789ZM27.5587 36.1734L26.1194 43.0284L28.0768 43.4394L29.516 36.5844L27.5587 36.1734ZM26.1179 43.0359C26.074 43.253 26.0526 43.4694 26.0526 43.6989H28.0526C28.0526 43.5985 28.0615 43.5148 28.0783 43.4319L26.1179 43.0359ZM26.0526 43.6989C26.0526 44.6124 26.429 45.4187 27.0157 45.9995L28.4228 44.5783C28.1914 44.3491 28.0526 44.0454 28.0526 43.6989H26.0526ZM27.0157 45.9995L28.6216 47.5895L30.0287 46.1683L28.4228 44.5783L27.0157 45.9995ZM30.0293 47.589L39.998 37.704L38.5897 36.2838L28.621 46.1688L30.0293 47.589ZM39.9876 37.7141C40.7411 36.9883 41.1877 35.9794 41.1877 34.8789H39.1877C39.1877 35.4284 38.9677 35.9195 38.6001 36.2737L39.9876 37.7141ZM41.1877 34.8789V19.8789H39.1877V34.8789H41.1877ZM41.1877 19.8789C41.1877 17.649 39.3638 15.8789 37.1577 15.8789V17.8789C38.2846 17.8789 39.1877 18.7788 39.1877 19.8789H41.1877Z" fill="#D9D9D9" mask="url(#path-2-inside-1_142_896)"/>
</svg>
