<svg width="29" height="29" viewBox="0 0 29 29" fill="none" xmlns="http://www.w3.org/2000/svg">
<mask id="mask0_1_4281" style="mask-type:alpha" maskUnits="userSpaceOnUse" x="0" y="0" width="29" height="29">
<rect x="0.652344" y="0.907715" width="28" height="28" fill="#D9D9D9"/>
</mask>
<g mask="url(#mask0_1_4281)">
<path d="M5.31899 24.2409C4.67732 24.2409 4.12802 24.0124 3.67107 23.5555C3.21413 23.0985 2.98566 22.5492 2.98566 21.9076V7.90755C2.98566 7.26589 3.21413 6.71658 3.67107 6.25964C4.12802 5.80269 4.67732 5.57422 5.31899 5.57422H23.9857C24.6273 5.57422 25.1766 5.80269 25.6336 6.25964C26.0905 6.71658 26.319 7.26589 26.319 7.90755V21.9076C26.319 22.5492 26.0905 23.0985 25.6336 23.5555C25.1766 24.0124 24.6273 24.2409 23.9857 24.2409H5.31899ZM14.6523 16.0742L5.31899 10.2409V21.9076H23.9857V10.2409L14.6523 16.0742ZM14.6523 13.7409L23.9857 7.90755H5.31899L14.6523 13.7409ZM5.31899 10.2409V7.90755V21.9076V10.2409Z" fill="#56FFEB"/>
</g>
</svg>
