<svg width="29" height="29" viewBox="0 0 29 29" fill="none" xmlns="http://www.w3.org/2000/svg">
<mask id="mask0_1_4286" style="mask-type:alpha" maskUnits="userSpaceOnUse" x="0" y="0" width="29" height="29">
<rect x="0.652344" y="0.907715" width="28" height="28" fill="#D9D9D9"/>
</mask>
<g mask="url(#mask0_1_4286)">
<path d="M8.23566 21.3245L16.9857 17.2412L21.069 8.49121L12.319 12.5745L8.23566 21.3245ZM14.6523 16.0745C14.3218 16.0745 14.0447 15.9627 13.8211 15.7391C13.5975 15.5155 13.4857 15.2384 13.4857 14.9079C13.4857 14.5773 13.5975 14.3002 13.8211 14.0766C14.0447 13.853 14.3218 13.7412 14.6523 13.7412C14.9829 13.7412 15.26 13.853 15.4836 14.0766C15.7072 14.3002 15.819 14.5773 15.819 14.9079C15.819 15.2384 15.7072 15.5155 15.4836 15.7391C15.26 15.9627 14.9829 16.0745 14.6523 16.0745ZM14.6523 26.5745C13.0384 26.5745 11.5218 26.2683 10.1023 25.6558C8.68288 25.0433 7.44816 24.212 6.39816 23.162C5.34816 22.112 4.51691 20.8773 3.90441 19.4579C3.29191 18.0384 2.98566 16.5218 2.98566 14.9079C2.98566 13.294 3.29191 11.7773 3.90441 10.3579C4.51691 8.93843 5.34816 7.70371 6.39816 6.65371C7.44816 5.60371 8.68288 4.77246 10.1023 4.15996C11.5218 3.54746 13.0384 3.24121 14.6523 3.24121C16.2662 3.24121 17.7829 3.54746 19.2023 4.15996C20.6218 4.77246 21.8565 5.60371 22.9065 6.65371C23.9565 7.70371 24.7877 8.93843 25.4002 10.3579C26.0127 11.7773 26.319 13.294 26.319 14.9079C26.319 16.5218 26.0127 18.0384 25.4002 19.4579C24.7877 20.8773 23.9565 22.112 22.9065 23.162C21.8565 24.212 20.6218 25.0433 19.2023 25.6558C17.7829 26.2683 16.2662 26.5745 14.6523 26.5745ZM14.6523 24.2412C17.2579 24.2412 19.4648 23.337 21.2732 21.5287C23.0815 19.7204 23.9857 17.5134 23.9857 14.9079C23.9857 12.3023 23.0815 10.0954 21.2732 8.28705C19.4648 6.47871 17.2579 5.57454 14.6523 5.57454C12.0468 5.57454 9.83982 6.47871 8.03149 8.28705C6.22316 10.0954 5.31899 12.3023 5.31899 14.9079C5.31899 17.5134 6.22316 19.7204 8.03149 21.5287C9.83982 23.337 12.0468 24.2412 14.6523 24.2412Z" fill="#56FFEB"/>
</g>
</svg>
