<svg width="31" height="29" viewBox="0 0 31 29" fill="none" xmlns="http://www.w3.org/2000/svg">
<path d="M24.6508 6.83877C24.4609 6.7476 24.2761 6.64765 24.097 6.53931C23.5766 6.21979 23.0994 5.84334 22.6758 5.41806C21.6145 4.29101 21.2183 3.1477 21.0733 2.34797H21.0783C20.957 1.68288 21.007 1.25342 21.0158 1.25342H16.1845V18.598C16.1845 18.8301 16.1845 19.0611 16.1745 19.2886C16.1745 19.3165 16.1708 19.342 16.1695 19.3733C16.1695 19.3849 16.1695 19.3989 16.1658 19.4116V19.4221C16.1151 20.0442 15.9004 20.6453 15.5408 21.1723C15.1811 21.6994 14.6875 22.1363 14.1033 22.4446C13.4938 22.7665 12.8045 22.9354 12.1033 22.9344C9.85329 22.9344 8.02829 21.2305 8.02829 19.1261C8.02829 17.0206 9.85329 15.3166 12.1033 15.3166C12.5295 15.3166 12.9533 15.3793 13.3583 15.5023L13.3645 10.9338C12.1346 10.7864 10.885 10.8774 9.69484 11.2011C8.50465 11.5247 7.39963 12.074 6.44954 12.8141C5.61686 13.4857 4.91677 14.287 4.38079 15.182C4.17704 15.5082 3.40704 16.8209 3.31454 18.9497C3.25579 20.1568 3.64704 21.4104 3.83329 21.9269V21.9385C3.94954 22.2426 4.40454 23.2826 5.14454 24.159C5.74129 24.8623 6.44635 25.4803 7.23704 25.9929V25.9813L7.24829 25.9929C9.58579 27.467 12.1795 27.3706 12.1795 27.3706C12.6283 27.3532 14.132 27.3706 15.8395 26.6197C17.7333 25.7863 18.8108 24.5455 18.8108 24.5455C19.4997 23.8039 20.0475 22.9588 20.4308 22.0465C20.8683 20.9786 21.0133 19.6995 21.0133 19.1888V9.98547C21.072 10.018 21.8533 10.4973 21.8533 10.4973C21.8533 10.4973 22.9783 11.1671 24.732 11.6023C25.9895 11.9123 27.6858 11.9784 27.6858 11.9784V7.52476C27.092 7.58511 25.8858 7.41101 24.6495 6.83994L24.6508 6.83877Z" fill="#F8F8F8"/>
</svg>
