<svg width="31" height="31" viewBox="0 0 31 31" fill="none" xmlns="http://www.w3.org/2000/svg">
<path fill-rule="evenodd" clip-rule="evenodd" d="M9.83125 1.57176C11.2975 1.50426 11.765 1.48926 15.5 1.48926C19.235 1.48926 19.7025 1.50551 21.1675 1.57176C22.6325 1.63801 23.6325 1.87176 24.5075 2.21051C25.4237 2.55676 26.255 3.09801 26.9425 3.79801C27.6425 4.48426 28.1825 5.31426 28.5275 6.23176C28.8675 7.10676 29.1 8.10676 29.1675 9.56926C29.235 11.038 29.25 11.5055 29.25 15.2393C29.25 18.9743 29.2337 19.4418 29.1675 20.908C29.1012 22.3705 28.8675 23.3705 28.5275 24.2455C28.1825 25.1631 27.6416 25.9945 26.9425 26.6818C26.255 27.3818 25.4237 27.9218 24.5075 28.2668C23.6325 28.6068 22.6325 28.8393 21.17 28.9068C19.7025 28.9743 19.235 28.9893 15.5 28.9893C11.765 28.9893 11.2975 28.973 9.83125 28.9068C8.36875 28.8405 7.36875 28.6068 6.49375 28.2668C5.57615 27.9217 4.74478 27.3808 4.0575 26.6818C3.35797 25.9951 2.81664 25.1641 2.47125 24.2468C2.1325 23.3718 1.9 22.3718 1.8325 20.9093C1.765 19.4405 1.75 18.973 1.75 15.2393C1.75 11.5043 1.76625 11.0368 1.8325 9.57176C1.89875 8.10676 2.1325 7.10676 2.47125 6.23176C2.81715 5.31436 3.3589 4.4834 4.05875 3.79676C4.74505 3.09738 5.57559 2.55606 6.4925 2.21051C7.3675 1.87176 8.3675 1.63926 9.83 1.57176H9.83125ZM21.0562 4.04676C19.6062 3.98051 19.1712 3.96676 15.5 3.96676C11.8287 3.96676 11.3937 3.98051 9.94375 4.04676C8.6025 4.10801 7.875 4.33176 7.39 4.52051C6.74875 4.77051 6.29 5.06676 5.80875 5.54801C5.35256 5.99182 5.00148 6.53211 4.78125 7.12926C4.5925 7.61426 4.36875 8.34176 4.3075 9.68301C4.24125 11.133 4.2275 11.568 4.2275 15.2393C4.2275 18.9105 4.24125 19.3455 4.3075 20.7955C4.36875 22.1368 4.5925 22.8643 4.78125 23.3493C5.00125 23.9455 5.3525 24.4868 5.80875 24.9305C6.2525 25.3868 6.79375 25.738 7.39 25.958C7.875 26.1468 8.6025 26.3705 9.94375 26.4318C11.3937 26.498 11.8275 26.5118 15.5 26.5118C19.1725 26.5118 19.6062 26.498 21.0562 26.4318C22.3975 26.3705 23.125 26.1468 23.61 25.958C24.2512 25.708 24.71 25.4118 25.1912 24.9305C25.6475 24.4868 25.9987 23.9455 26.2187 23.3493C26.4075 22.8643 26.6312 22.1368 26.6925 20.7955C26.7587 19.3455 26.7725 18.9105 26.7725 15.2393C26.7725 11.568 26.7587 11.133 26.6925 9.68301C26.6312 8.34176 26.4075 7.61426 26.2187 7.12926C25.9687 6.48801 25.6725 6.02926 25.1912 5.54801C24.7474 5.09185 24.2071 4.74077 23.61 4.52051C23.125 4.33176 22.3975 4.10801 21.0562 4.04676ZM13.7437 19.478C14.7246 19.8863 15.8167 19.9414 16.8337 19.6339C17.8506 19.3264 18.7292 18.6754 19.3195 17.7921C19.9098 16.9087 20.1751 15.8478 20.0701 14.7906C19.965 13.7334 19.4963 12.7455 18.7437 11.9955C18.264 11.5161 17.684 11.149 17.0454 10.9207C16.4068 10.6924 15.7255 10.6085 15.0506 10.675C14.3757 10.7416 13.7239 10.957 13.1423 11.3057C12.5606 11.6544 12.0634 12.1277 11.6866 12.6916C11.3098 13.2555 11.0627 13.8959 10.9631 14.5667C10.8636 15.2375 10.9139 15.9221 11.1107 16.5712C11.3074 17.2202 11.6456 17.8175 12.1009 18.3202C12.5562 18.8228 13.1173 19.2182 13.7437 19.478ZM10.5025 10.2418C11.1588 9.58548 11.9379 9.06489 12.7954 8.70971C13.6528 8.35453 14.5719 8.17172 15.5 8.17172C16.4281 8.17172 17.3472 8.35453 18.2046 8.70971C19.0621 9.06489 19.8412 9.58548 20.4975 10.2418C21.1538 10.898 21.6744 11.6772 22.0295 12.5346C22.3847 13.3921 22.5675 14.3111 22.5675 15.2393C22.5675 16.1674 22.3847 17.0864 22.0295 17.9439C21.6744 18.8014 21.1538 19.5805 20.4975 20.2368C19.1721 21.5622 17.3744 22.3068 15.5 22.3068C13.6256 22.3068 11.8279 21.5622 10.5025 20.2368C9.17708 18.9113 8.43247 17.1137 8.43247 15.2393C8.43247 13.3648 9.17708 11.5672 10.5025 10.2418ZM24.135 9.22426C24.2976 9.07084 24.4278 8.88636 24.5179 8.68172C24.6079 8.47709 24.656 8.25647 24.6593 8.03292C24.6625 7.80937 24.6209 7.58744 24.5369 7.38027C24.4528 7.1731 24.328 6.9849 24.1699 6.82681C24.0119 6.66872 23.8237 6.54395 23.6165 6.4599C23.4093 6.37585 23.1874 6.33423 22.9638 6.33749C22.7403 6.34074 22.5197 6.38882 22.315 6.47888C22.1104 6.56893 21.9259 6.69913 21.7725 6.86176C21.4741 7.17804 21.3108 7.59816 21.3171 8.03292C21.3235 8.46768 21.499 8.88286 21.8064 9.19031C22.1139 9.49777 22.5291 9.67329 22.9638 9.67963C23.3986 9.68597 23.8187 9.52262 24.135 9.22426Z" fill="#F8F8F8"/>
</svg>
