<svg width="31" height="31" viewBox="0 0 31 31" fill="none" xmlns="http://www.w3.org/2000/svg">
<g clip-path="url(#clip0_1_4295)">
<path fill-rule="evenodd" clip-rule="evenodd" d="M30.5 15.2393C30.5 23.523 23.7838 30.2393 15.5 30.2393C7.21625 30.2393 0.5 23.523 0.5 15.2393C0.5 6.95551 7.21625 0.239258 15.5 0.239258C23.7838 0.239258 30.5 6.95551 30.5 15.2393ZM16.0375 11.313C14.5788 11.9193 11.6625 13.1755 7.29 15.0805C6.58 15.363 6.2075 15.6393 6.17375 15.9093C6.11625 16.3668 6.68875 16.5468 7.46625 16.7905C7.5725 16.8243 7.6825 16.858 7.795 16.8955C8.56125 17.1443 9.59125 17.4355 10.1263 17.4468C10.6125 17.4568 11.155 17.2568 11.7537 16.8468C15.8387 14.088 17.9475 12.6943 18.08 12.6643C18.1737 12.643 18.3037 12.6155 18.3913 12.6943C18.4788 12.7718 18.47 12.9193 18.4613 12.9593C18.4038 13.2005 16.1613 15.2868 14.9987 16.3668C14.6362 16.703 14.38 16.9418 14.3275 16.9968C14.21 17.118 14.09 17.2343 13.975 17.3455C13.2625 18.0305 12.73 18.5455 14.005 19.3855C14.6175 19.7893 15.1075 20.123 15.5962 20.4555C16.13 20.8193 16.6625 21.1818 17.3525 21.6343C17.5275 21.7493 17.695 21.868 17.8587 21.9843C18.48 22.428 19.0387 22.8255 19.7288 22.763C20.1287 22.7255 20.5437 22.3493 20.7537 21.2255C21.25 18.568 22.2275 12.813 22.4538 10.4405C22.4675 10.2435 22.4591 10.0456 22.4287 9.85051C22.4106 9.69292 22.3338 9.54792 22.2138 9.44426C22.035 9.29801 21.7575 9.26676 21.6325 9.26926C21.0688 9.27926 20.2038 9.58051 16.0375 11.313Z" fill="#F8F8F8"/>
</g>
<defs>
<clipPath id="clip0_1_4295">
<rect width="30" height="30" fill="white" transform="translate(0.5 0.239258)"/>
</clipPath>
</defs>
</svg>
