<svg width="31" height="31" viewBox="0 0 31 31" fill="none" xmlns="http://www.w3.org/2000/svg">
<path fill-rule="evenodd" clip-rule="evenodd" d="M1.75 3.78676C1.75 3.17743 1.99206 2.59305 2.42292 2.16218C2.85379 1.73132 3.43817 1.48926 4.0475 1.48926H26.95C27.252 1.48877 27.5511 1.54784 27.8302 1.66309C28.1093 1.77835 28.3629 1.94752 28.5766 2.16093C28.7902 2.37434 28.9597 2.62779 29.0752 2.90677C29.1908 3.18576 29.2502 3.48479 29.25 3.78676V26.6893C29.2503 26.9913 29.1911 27.2904 29.0757 27.5695C28.9603 27.8486 28.791 28.1023 28.5775 28.3159C28.364 28.5295 28.1105 28.699 27.8314 28.8145C27.5524 28.93 27.2533 28.9894 26.9512 28.9893H4.0475C3.74568 28.9893 3.44682 28.9298 3.168 28.8143C2.88917 28.6987 2.63584 28.5294 2.42248 28.3159C2.20912 28.1024 2.03991 27.849 1.92453 27.5701C1.80914 27.2912 1.74984 26.9923 1.75 26.6905V3.78676ZM12.635 11.9743H16.3588V13.8443C16.8963 12.7693 18.2712 11.8018 20.3375 11.8018C24.2987 11.8018 25.2375 13.943 25.2375 17.8718V25.1493H21.2288V18.7668C21.2288 16.5293 20.6912 15.2668 19.3263 15.2668C17.4325 15.2668 16.645 16.628 16.645 18.7668V25.1493H12.635V11.9743ZM5.76 24.978H9.77V11.8018H5.76V24.9768V24.978ZM10.3438 7.50426C10.3513 7.8476 10.2902 8.18899 10.1641 8.5084C10.0379 8.82781 9.84919 9.1188 9.60904 9.3643C9.36889 9.6098 9.08212 9.80485 8.76557 9.93802C8.44901 10.0712 8.10905 10.1398 7.76563 10.1398C7.4222 10.1398 7.08224 10.0712 6.76568 9.93802C6.44913 9.80485 6.16236 9.6098 5.92221 9.3643C5.68206 9.1188 5.49337 8.82781 5.3672 8.5084C5.24103 8.18899 5.17994 7.8476 5.1875 7.50426C5.20234 6.83033 5.48048 6.189 5.96236 5.71762C6.44423 5.24624 7.09153 4.98228 7.76563 4.98228C8.43972 4.98228 9.08702 5.24624 9.56889 5.71762C10.0508 6.189 10.3289 6.83033 10.3438 7.50426Z" fill="#F8F8F8"/>
</svg>
