<svg width="31" height="31" viewBox="0 0 31 31" fill="none" xmlns="http://www.w3.org/2000/svg">
<g clip-path="url(#clip0_1_4299)">
<path d="M29.8758 8.37335C29.7059 7.76739 29.375 7.21878 28.9183 6.78585C28.4486 6.3396 27.873 6.02039 27.2458 5.85835C24.8983 5.2396 15.4933 5.2396 15.4933 5.2396C11.5724 5.19499 7.65256 5.39119 3.75577 5.8271C3.12851 6.00111 2.55398 6.32746 2.08327 6.7771C1.62077 7.2221 1.28577 7.77085 1.11077 8.3721C0.690388 10.6368 0.486137 12.9363 0.500771 15.2396C0.485771 17.5408 0.689521 19.8396 1.11077 22.1071C1.28202 22.7058 1.61577 23.2521 2.07952 23.6933C2.54327 24.1346 3.12077 24.4533 3.75577 24.6221C6.13452 25.2396 15.4933 25.2396 15.4933 25.2396C19.4191 25.2843 23.344 25.0881 27.2458 24.6521C27.873 24.4901 28.4486 24.1708 28.9183 23.7246C29.3749 23.2918 29.7054 22.7431 29.8745 22.1371C30.3059 19.8733 30.5156 17.5728 30.5008 15.2683C30.5332 12.9541 30.3237 10.6428 29.8758 8.3721V8.37335ZM12.5033 19.5196V10.9608L20.3283 15.2408L12.5033 19.5196Z" fill="url(#paint0_linear_1_4299)"/>
</g>
<defs>
<linearGradient id="paint0_linear_1_4299" x1="-14.569" y1="15.2396" x2="35.1351" y2="41.193" gradientUnits="userSpaceOnUse">
<stop stop-color="#40C6FF"/>
<stop offset="0.203119" stop-color="#1A8AD7"/>
<stop offset="0.817714" stop-color="#56FFEB"/>
</linearGradient>
<clipPath id="clip0_1_4299">
<rect width="30" height="30" fill="white" transform="translate(0.5 0.239258)"/>
</clipPath>
</defs>
</svg>
