<svg width="18" height="18" viewBox="0 0 18 18" fill="none" xmlns="http://www.w3.org/2000/svg">
<path d="M12.9154 10.666C12.9821 10.116 13.0321 9.56602 13.0321 8.99935C13.0321 8.43268 12.9821 7.88268 12.9154 7.33268H15.7321C15.8654 7.86602 15.9487 8.42435 15.9487 8.99935C15.9487 9.57435 15.8654 10.1327 15.7321 10.666M11.4404 15.2993C11.9404 14.3743 12.3237 13.3743 12.5904 12.3327H15.0487C14.2414 13.7229 12.9605 14.776 11.4404 15.2993ZM11.2321 10.666H7.33206C7.24873 10.116 7.19873 9.56602 7.19873 8.99935C7.19873 8.43268 7.24873 7.87435 7.33206 7.33268H11.2321C11.3071 7.87435 11.3654 8.43268 11.3654 8.99935C11.3654 9.56602 11.3071 10.116 11.2321 10.666ZM9.28206 15.6327C8.5904 14.6327 8.03206 13.5243 7.6904 12.3327H10.8737C10.5321 13.5243 9.97373 14.6327 9.28206 15.6327ZM5.94873 5.66602H3.5154C4.31444 4.27203 5.59439 3.21725 7.1154 2.69935C6.6154 3.62435 6.2404 4.62435 5.94873 5.66602ZM3.5154 12.3327H5.94873C6.2404 13.3743 6.6154 14.3743 7.1154 15.2993C5.59758 14.7757 4.31944 13.7224 3.5154 12.3327ZM2.83206 10.666C2.69873 10.1327 2.6154 9.57435 2.6154 8.99935C2.6154 8.42435 2.69873 7.86602 2.83206 7.33268H5.64873C5.58206 7.88268 5.53206 8.43268 5.53206 8.99935C5.53206 9.56602 5.58206 10.116 5.64873 10.666M9.28206 2.35768C9.97373 3.35768 10.5321 4.47435 10.8737 5.66602H7.6904C8.03206 4.47435 8.5904 3.35768 9.28206 2.35768ZM15.0487 5.66602H12.5904C12.3296 4.6339 11.9434 3.6376 11.4404 2.69935C12.9737 3.22435 14.2487 4.28268 15.0487 5.66602ZM9.28206 0.666016C4.67373 0.666016 0.94873 4.41602 0.94873 8.99935C0.94873 11.2095 1.8267 13.3291 3.38951 14.8919C4.16333 15.6657 5.08199 16.2796 6.09303 16.6983C7.10408 17.1171 8.18771 17.3327 9.28206 17.3327C11.4922 17.3327 13.6118 16.4547 15.1746 14.8919C16.7374 13.3291 17.6154 11.2095 17.6154 8.99935C17.6154 7.905 17.3998 6.82137 16.9811 5.81032C16.5623 4.79927 15.9484 3.88061 15.1746 3.10679C14.4008 2.33297 13.4821 1.71914 12.4711 1.30035C11.46 0.881564 10.3764 0.666016 9.28206 0.666016Z" fill="black"/>
</svg>
