<svg width="61" height="61" viewBox="0 0 61 61" fill="none" xmlns="http://www.w3.org/2000/svg">
<circle cx="30.334" cy="30.0508" r="29" stroke="#D9D9D9" stroke-width="2"/>
<path d="M34.9584 23.6189L34.8303 24.2227H35.4475H45.0223C46.419 24.2227 47.5523 25.3401 47.5523 26.7227V29.7227C47.5523 30.0423 47.4912 30.3379 47.378 30.6267L42.806 41.1941L42.806 41.1941L42.804 41.1987C42.4268 42.0952 41.5315 42.7227 40.4773 42.7227H26.8423C26.1697 42.7227 25.5256 42.4581 25.0515 41.9887C24.5776 41.5194 24.3123 40.8841 24.3123 40.2227V25.2227C24.3123 24.5366 24.5883 23.913 25.0579 23.448L34.6765 13.9246L35.929 15.153C35.9292 15.1532 35.9295 15.1535 35.9297 15.1537C36.2482 15.4694 36.4473 15.913 36.4473 16.3877C36.4473 16.5226 36.4349 16.6533 36.4122 16.7664C36.4121 16.7672 36.4119 16.7679 36.4118 16.7687L34.9584 23.6189ZM20.2823 25.7227V42.7227H15.2223V25.7227H20.2823Z" fill="#D9D9D9" stroke="#D9D9D9"/>
</svg>
