<svg width="49" height="49" viewBox="0 0 49 49" fill="none" xmlns="http://www.w3.org/2000/svg">
<g clip-path="url(#clip0_1_2371)">
<path d="M0.5 3.77589C0.5 1.87689 2.078 0.337891 4.025 0.337891H44.975C46.922 0.337891 48.5 1.87689 48.5 3.77589V44.8999C48.5 46.7989 46.922 48.3379 44.975 48.3379H4.025C2.078 48.3379 0.5 46.7989 0.5 44.8999V3.77589ZM15.329 40.5199V18.8449H8.126V40.5199H15.329ZM11.729 15.8839C14.24 15.8839 15.803 14.2219 15.803 12.1399C15.758 10.0129 14.243 8.39589 11.777 8.39589C9.311 8.39589 7.7 10.0159 7.7 12.1399C7.7 14.2219 9.263 15.8839 11.681 15.8839H11.729ZM26.453 40.5199V28.4149C26.453 27.7669 26.501 27.1189 26.693 26.6569C27.212 25.3639 28.397 24.0229 30.389 24.0229C32.996 24.0229 34.037 26.0089 34.037 28.9249V40.5199H41.24V28.0879C41.24 21.4279 37.688 18.3319 32.948 18.3319C29.126 18.3319 27.413 20.4319 26.453 21.9109V21.9859H26.405C26.4209 21.9608 26.4369 21.9358 26.453 21.9109V18.8449H19.253C19.343 20.8789 19.253 40.5199 19.253 40.5199H26.453Z" fill="white"/>
</g>
<defs>
<clipPath id="clip0_1_2371">
<rect width="48" height="48" fill="white" transform="translate(0.5 0.337891)"/>
</clipPath>
</defs>
</svg>
