<svg width="17" height="17" viewBox="0 0 17 17" fill="none" xmlns="http://www.w3.org/2000/svg">
<path d="M15.1601 4.51981C15.1601 3.88863 14.6484 3.37695 14.0173 3.37695H2.96964C2.33846 3.37695 1.82678 3.88863 1.82678 4.51981V12.9008C1.82678 13.5319 2.33846 14.0436 2.96964 14.0436H14.0173C14.6484 14.0436 15.1601 13.5319 15.1601 12.9008V4.51981ZM13.8268 5.73029C13.8268 5.92521 13.7264 6.10638 13.5611 6.20969L9.09916 8.99838C8.72857 9.23 8.25833 9.23 7.88774 8.99838L3.42582 6.20969C3.26053 6.10638 3.16012 5.92521 3.16012 5.73029V5.73029C3.16012 5.28625 3.64853 5.01555 4.02507 5.25088L7.88774 7.66505C8.25833 7.89667 8.72857 7.89667 9.09916 7.66505L12.9618 5.25088C13.3384 5.01555 13.8268 5.28625 13.8268 5.73029V5.73029Z" fill="#D9D9D9"/>
</svg>
