<svg width="19" height="20" viewBox="0 0 19 20" fill="none" xmlns="http://www.w3.org/2000/svg">
<path fill-rule="evenodd" clip-rule="evenodd" d="M6.7048 0.872433C4.37014 1.13788 2.37145 2.41925 1.17636 4.41668C0.685951 5.23632 0.381854 6.07417 0.207099 7.08743C0.11396 7.62729 0.122495 8.87838 0.223066 9.43264C0.650459 11.7882 2.02862 13.6868 4.08959 14.7595C5.19214 15.3334 6.19018 15.5755 7.44981 15.5745C8.98402 15.5735 10.2419 15.1912 11.5206 14.3375L11.9462 14.0533L14.419 16.5384C16.0868 18.2146 16.938 19.0454 17.034 19.0909C17.2267 19.1823 17.6269 19.1831 17.7986 19.0924C18.2264 18.8663 18.4225 18.4022 18.2788 17.9557C18.22 17.7728 18.0864 17.6312 15.7296 15.2518L13.2424 12.7409L13.5171 12.3318C14.8364 10.3673 15.1261 7.91123 14.3071 5.63484C14.0387 4.88875 13.5263 4.02188 12.9715 3.375C12.0476 2.2979 10.7399 1.46579 9.39979 1.10231C8.57985 0.879921 7.47079 0.785334 6.7048 0.872433ZM7.97575 2.69917C9.32845 2.8484 10.3837 3.35433 11.3285 4.30661C12.292 5.27777 12.8046 6.38 12.9325 7.75591C13.0469 8.98586 12.7197 10.2388 11.9986 11.3332C11.6991 11.7877 10.9966 12.4955 10.5454 12.7972C8.72132 14.0172 6.48033 14.0814 4.62623 12.9667C3.28829 12.1623 2.34705 10.8086 2.03773 9.24375C1.92457 8.67122 1.92457 7.75774 2.03773 7.1852C2.35672 5.57149 3.34324 4.19494 4.76439 3.38045C5.7142 2.83615 6.91256 2.58191 7.97575 2.69917Z" fill="#89898D"/>
</svg>
