<svg width="31" height="31" viewBox="0 0 31 31" fill="none" xmlns="http://www.w3.org/2000/svg">
<g clip-path="url(#clip0_1_4299)">
<path d="M29.8758 8.1546C29.7059 7.54864 29.375 7.00003 28.9183 6.5671C28.4486 6.12085 27.873 5.80164 27.2458 5.6396C24.8983 5.02085 15.4933 5.02085 15.4933 5.02085C11.5724 4.97624 7.65256 5.17244 3.75577 5.60835C3.12851 5.78236 2.55398 6.10871 2.08327 6.55835C1.62077 7.00335 1.28577 7.5521 1.11077 8.15335C0.690388 10.418 0.486137 12.7175 0.500771 15.0208C0.485771 17.3221 0.689521 19.6208 1.11077 21.8883C1.28202 22.4871 1.61577 23.0333 2.07952 23.4746C2.54327 23.9158 3.12077 24.2346 3.75577 24.4033C6.13452 25.0208 15.4933 25.0208 15.4933 25.0208C19.4191 25.0655 23.344 24.8693 27.2458 24.4333C27.873 24.2713 28.4486 23.9521 28.9183 23.5058C29.3749 23.073 29.7054 22.5243 29.8745 21.9183C30.3059 19.6545 30.5156 17.3541 30.5008 15.0496C30.5332 12.7354 30.3237 10.4241 29.8758 8.15335V8.1546ZM12.5033 19.3008V10.7421L20.3283 15.0221L12.5033 19.3008Z" fill="url(#paint0_linear_1_4299)"/>
</g>
<defs>
<linearGradient id="paint0_linear_1_4299" x1="-14.569" y1="15.0209" x2="35.1351" y2="40.9742" gradientUnits="userSpaceOnUse">
<stop stop-color="#40C6FF"/>
<stop offset="0.203119" stop-color="#1A8AD7"/>
<stop offset="0.817714" stop-color="#56FFEB"/>
</linearGradient>
<clipPath id="clip0_1_4299">
<rect width="30" height="30" fill="white" transform="translate(0.5 0.0205078)"/>
</clipPath>
</defs>
</svg>
