<svg width="31" height="29" viewBox="0 0 31 29" fill="none" xmlns="http://www.w3.org/2000/svg">
<path d="M24.6508 6.62002C24.4609 6.52885 24.2761 6.4289 24.097 6.32056C23.5766 6.00104 23.0994 5.62459 22.6758 5.19931C21.6145 4.07226 21.2183 2.92895 21.0733 2.12922H21.0783C20.957 1.46413 21.007 1.03467 21.0158 1.03467H16.1845V18.3792C16.1845 18.6114 16.1845 18.8423 16.1745 19.0698C16.1745 19.0977 16.1708 19.1232 16.1695 19.1546C16.1695 19.1662 16.1695 19.1801 16.1658 19.1929V19.2033C16.1151 19.8255 15.9004 20.4265 15.5408 20.9536C15.1811 21.4806 14.6875 21.9175 14.1033 22.2258C13.4938 22.5478 12.8045 22.7166 12.1033 22.7157C9.85329 22.7157 8.02829 21.0117 8.02829 18.9073C8.02829 16.8018 9.85329 15.0979 12.1033 15.0979C12.5295 15.0979 12.9533 15.1606 13.3583 15.2836L13.3645 10.715C12.1346 10.5677 10.885 10.6587 9.69484 10.9823C8.50465 11.306 7.39963 11.8552 6.44954 12.5954C5.61686 13.2669 4.91677 14.0682 4.38079 14.9632C4.17704 15.2894 3.40704 16.6022 3.31454 18.7309C3.25579 19.9381 3.64704 21.1916 3.83329 21.7082V21.7198C3.94954 22.0239 4.40454 23.0639 5.14454 23.9402C5.74129 24.6436 6.44635 25.2615 7.23704 25.7741V25.7625L7.24829 25.7741C9.58579 27.2482 12.1795 27.1519 12.1795 27.1519C12.6283 27.1345 14.132 27.1519 15.8395 26.4009C17.7333 25.5675 18.8108 24.3267 18.8108 24.3267C19.4997 23.5852 20.0475 22.7401 20.4308 21.8277C20.8683 20.7598 21.0133 19.4807 21.0133 18.97V9.76672C21.072 9.79922 21.8533 10.2786 21.8533 10.2786C21.8533 10.2786 22.9783 10.9483 24.732 11.3836C25.9895 11.6935 27.6858 11.7597 27.6858 11.7597V7.30601C27.092 7.36636 25.8858 7.19226 24.6495 6.62119L24.6508 6.62002Z" fill="#F8F8F8"/>
</svg>
