<svg width="31" height="31" viewBox="0 0 31 31" fill="none" xmlns="http://www.w3.org/2000/svg">
<path fill-rule="evenodd" clip-rule="evenodd" d="M9.83125 1.35301C11.2975 1.28551 11.765 1.27051 15.5 1.27051C19.235 1.27051 19.7025 1.28676 21.1675 1.35301C22.6325 1.41926 23.6325 1.65301 24.5075 1.99176C25.4237 2.33801 26.255 2.87926 26.9425 3.57926C27.6425 4.26551 28.1825 5.09551 28.5275 6.01301C28.8675 6.88801 29.1 7.88801 29.1675 9.35051C29.235 10.8193 29.25 11.2868 29.25 15.0205C29.25 18.7555 29.2337 19.223 29.1675 20.6893C29.1012 22.1518 28.8675 23.1518 28.5275 24.0268C28.1825 24.9444 27.6416 25.7758 26.9425 26.463C26.255 27.163 25.4237 27.703 24.5075 28.048C23.6325 28.388 22.6325 28.6205 21.17 28.688C19.7025 28.7555 19.235 28.7705 15.5 28.7705C11.765 28.7705 11.2975 28.7543 9.83125 28.688C8.36875 28.6218 7.36875 28.388 6.49375 28.048C5.57615 27.703 4.74478 27.1621 4.0575 26.463C3.35797 25.7763 2.81664 24.9454 2.47125 24.028C2.1325 23.153 1.9 22.153 1.8325 20.6905C1.765 19.2218 1.75 18.7543 1.75 15.0205C1.75 11.2855 1.76625 10.818 1.8325 9.35301C1.89875 7.88801 2.1325 6.88801 2.47125 6.01301C2.81715 5.09561 3.3589 4.26465 4.05875 3.57801C4.74505 2.87863 5.57559 2.33731 6.4925 1.99176C7.3675 1.65301 8.3675 1.42051 9.83 1.35301H9.83125ZM21.0562 3.82801C19.6062 3.76176 19.1712 3.74801 15.5 3.74801C11.8287 3.74801 11.3937 3.76176 9.94375 3.82801C8.6025 3.88926 7.875 4.11301 7.39 4.30176C6.74875 4.55176 6.29 4.84801 5.80875 5.32926C5.35256 5.77307 5.00148 6.31336 4.78125 6.91051C4.5925 7.39551 4.36875 8.12301 4.3075 9.46426C4.24125 10.9143 4.2275 11.3493 4.2275 15.0205C4.2275 18.6918 4.24125 19.1268 4.3075 20.5768C4.36875 21.918 4.5925 22.6455 4.78125 23.1305C5.00125 23.7268 5.3525 24.268 5.80875 24.7118C6.2525 25.168 6.79375 25.5193 7.39 25.7393C7.875 25.928 8.6025 26.1518 9.94375 26.213C11.3937 26.2793 11.8275 26.293 15.5 26.293C19.1725 26.293 19.6062 26.2793 21.0562 26.213C22.3975 26.1518 23.125 25.928 23.61 25.7393C24.2512 25.4893 24.71 25.193 25.1912 24.7118C25.6475 24.268 25.9987 23.7268 26.2187 23.1305C26.4075 22.6455 26.6312 21.918 26.6925 20.5768C26.7587 19.1268 26.7725 18.6918 26.7725 15.0205C26.7725 11.3493 26.7587 10.9143 26.6925 9.46426C26.6312 8.12301 26.4075 7.39551 26.2187 6.91051C25.9687 6.26926 25.6725 5.81051 25.1912 5.32926C24.7474 4.8731 24.2071 4.52202 23.61 4.30176C23.125 4.11301 22.3975 3.88926 21.0562 3.82801ZM13.7437 19.2593C14.7246 19.6675 15.8167 19.7227 16.8337 19.4152C17.8506 19.1077 18.7292 18.4567 19.3195 17.5733C19.9098 16.69 20.1751 15.6291 20.0701 14.5719C19.965 13.5147 19.4963 12.5267 18.7437 11.7768C18.264 11.2974 17.684 10.9303 17.0454 10.7019C16.4068 10.4736 15.7255 10.3897 15.0506 10.4563C14.3757 10.5228 13.7239 10.7382 13.1423 11.0869C12.5606 11.4356 12.0634 11.9089 11.6866 12.4728C11.3098 13.0367 11.0627 13.6771 10.9631 14.348C10.8636 15.0188 10.9139 15.7034 11.1107 16.3524C11.3074 17.0014 11.6456 17.5988 12.1009 18.1014C12.5562 18.604 13.1173 18.9995 13.7437 19.2593ZM10.5025 10.023C11.1588 9.36673 11.9379 8.84614 12.7954 8.49096C13.6528 8.13578 14.5719 7.95297 15.5 7.95297C16.4281 7.95297 17.3472 8.13578 18.2046 8.49096C19.0621 8.84614 19.8412 9.36673 20.4975 10.023C21.1538 10.6793 21.6744 11.4584 22.0295 12.3159C22.3847 13.1734 22.5675 14.0924 22.5675 15.0205C22.5675 15.9486 22.3847 16.8677 22.0295 17.7251C21.6744 18.5826 21.1538 19.3617 20.4975 20.018C19.1721 21.3434 17.3744 22.088 15.5 22.088C13.6256 22.088 11.8279 21.3434 10.5025 20.018C9.17708 18.6926 8.43247 16.8949 8.43247 15.0205C8.43247 13.1461 9.17708 11.3484 10.5025 10.023ZM24.135 9.00551C24.2976 8.85209 24.4278 8.66761 24.5179 8.46297C24.6079 8.25834 24.656 8.03772 24.6593 7.81417C24.6625 7.59062 24.6209 7.36869 24.5369 7.16152C24.4528 6.95435 24.328 6.76615 24.1699 6.60806C24.0119 6.44997 23.8237 6.3252 23.6165 6.24115C23.4093 6.1571 23.1874 6.11548 22.9638 6.11874C22.7403 6.12199 22.5197 6.17007 22.315 6.26013C22.1104 6.35018 21.9259 6.48038 21.7725 6.64301C21.4741 6.95929 21.3108 7.37941 21.3171 7.81417C21.3235 8.24893 21.499 8.66411 21.8064 8.97156C22.1139 9.27902 22.5291 9.45454 22.9638 9.46088C23.3986 9.46722 23.8187 9.30387 24.135 9.00551Z" fill="#F8F8F8"/>
</svg>
