<svg width="31" height="31" viewBox="0 0 31 31" fill="none" xmlns="http://www.w3.org/2000/svg">
<g clip-path="url(#clip0_1_4295)">
<path fill-rule="evenodd" clip-rule="evenodd" d="M30.5 15.0205C30.5 23.3043 23.7838 30.0205 15.5 30.0205C7.21625 30.0205 0.5 23.3043 0.5 15.0205C0.5 6.73676 7.21625 0.0205078 15.5 0.0205078C23.7838 0.0205078 30.5 6.73676 30.5 15.0205ZM16.0375 11.0943C14.5788 11.7005 11.6625 12.9568 7.29 14.8618C6.58 15.1443 6.2075 15.4205 6.17375 15.6905C6.11625 16.148 6.68875 16.328 7.46625 16.5718C7.5725 16.6055 7.6825 16.6393 7.795 16.6768C8.56125 16.9255 9.59125 17.2168 10.1263 17.228C10.6125 17.238 11.155 17.038 11.7537 16.628C15.8387 13.8693 17.9475 12.4755 18.08 12.4455C18.1737 12.4243 18.3037 12.3968 18.3913 12.4755C18.4788 12.553 18.47 12.7005 18.4613 12.7405C18.4038 12.9818 16.1613 15.068 14.9987 16.148C14.6362 16.4843 14.38 16.723 14.3275 16.778C14.21 16.8993 14.09 17.0155 13.975 17.1268C13.2625 17.8118 12.73 18.3268 14.005 19.1668C14.6175 19.5705 15.1075 19.9043 15.5962 20.2368C16.13 20.6005 16.6625 20.963 17.3525 21.4155C17.5275 21.5305 17.695 21.6493 17.8587 21.7655C18.48 22.2093 19.0387 22.6068 19.7288 22.5443C20.1287 22.5068 20.5437 22.1305 20.7537 21.0068C21.25 18.3493 22.2275 12.5943 22.4538 10.2218C22.4675 10.0248 22.4591 9.82687 22.4287 9.63176C22.4106 9.47417 22.3338 9.32917 22.2138 9.22551C22.035 9.07926 21.7575 9.04801 21.6325 9.05051C21.0688 9.06051 20.2038 9.36176 16.0375 11.0943Z" fill="#F8F8F8"/>
</g>
<defs>
<clipPath id="clip0_1_4295">
<rect width="30" height="30" fill="white" transform="translate(0.5 0.0205078)"/>
</clipPath>
</defs>
</svg>
