<svg width="31" height="31" viewBox="0 0 31 31" fill="none" xmlns="http://www.w3.org/2000/svg">
<path fill-rule="evenodd" clip-rule="evenodd" d="M1.75 3.56801C1.75 2.95868 1.99206 2.3743 2.42292 1.94343C2.85379 1.51257 3.43817 1.27051 4.0475 1.27051H26.95C27.252 1.27002 27.5511 1.32909 27.8302 1.44434C28.1093 1.5596 28.3629 1.72877 28.5766 1.94218C28.7902 2.15559 28.9597 2.40904 29.0752 2.68802C29.1908 2.96701 29.2502 3.26604 29.25 3.56801V26.4705C29.2503 26.7725 29.1911 27.0717 29.0757 27.3508C28.9603 27.6299 28.791 27.8835 28.5775 28.0971C28.364 28.3108 28.1105 28.4802 27.8314 28.5957C27.5524 28.7113 27.2533 28.7707 26.9512 28.7705H4.0475C3.74568 28.7705 3.44682 28.711 3.168 28.5955C2.88917 28.48 2.63584 28.3106 2.42248 28.0971C2.20912 27.8837 2.03991 27.6302 1.92453 27.3514C1.80914 27.0725 1.74984 26.7736 1.75 26.4718V3.56801ZM12.635 11.7555H16.3588V13.6255C16.8963 12.5505 18.2712 11.583 20.3375 11.583C24.2987 11.583 25.2375 13.7243 25.2375 17.653V24.9305H21.2288V18.548C21.2288 16.3105 20.6912 15.048 19.3263 15.048C17.4325 15.048 16.645 16.4093 16.645 18.548V24.9305H12.635V11.7555ZM5.76 24.7593H9.77V11.583H5.76V24.758V24.7593ZM10.3438 7.28551C10.3513 7.62885 10.2902 7.97024 10.1641 8.28965C10.0379 8.60906 9.84919 8.90005 9.60904 9.14555C9.36889 9.39105 9.08212 9.5861 8.76557 9.71927C8.44901 9.85244 8.10905 9.92103 7.76563 9.92103C7.4222 9.92103 7.08224 9.85244 6.76568 9.71927C6.44913 9.5861 6.16236 9.39105 5.92221 9.14555C5.68206 8.90005 5.49337 8.60906 5.3672 8.28965C5.24103 7.97024 5.17994 7.62885 5.1875 7.28551C5.20234 6.61158 5.48048 5.97025 5.96236 5.49887C6.44423 5.02749 7.09153 4.76353 7.76563 4.76353C8.43972 4.76353 9.08702 5.02749 9.56889 5.49887C10.0508 5.97025 10.3289 6.61158 10.3438 7.28551Z" fill="#F8F8F8"/>
</svg>
