<svg width="15" height="15" viewBox="0 0 15 15" fill="none" xmlns="http://www.w3.org/2000/svg">
<g clip-path="url(#clip0_102_924)">
<path fill-rule="evenodd" clip-rule="evenodd" d="M2.14393 1.15734C2.29703 1.00446 2.48087 0.885875 2.68327 0.809428C2.88568 0.73298 3.10201 0.700421 3.31795 0.713907C3.53389 0.727392 3.74449 0.786615 3.93581 0.887651C4.12712 0.988687 4.29478 1.12923 4.42768 1.29996L5.9983 3.31771C6.28618 3.68784 6.38768 4.16996 6.27393 4.62496L5.7953 6.54121C5.77056 6.64046 5.77189 6.74443 5.79918 6.84301C5.82647 6.94159 5.87879 7.03144 5.95105 7.10384L8.10093 9.25371C8.17341 9.32612 8.26341 9.37852 8.36216 9.40582C8.46091 9.43311 8.56505 9.43437 8.66443 9.40946L10.5798 8.93084C10.8043 8.8747 11.0387 8.87033 11.2652 8.91808C11.4916 8.96583 11.7043 9.06444 11.8871 9.20646L13.9048 10.7762C14.6302 11.3406 14.6967 12.4125 14.0474 13.0608L13.1427 13.9656C12.4952 14.6131 11.5274 14.8975 10.6253 14.5798C8.31634 13.7674 6.21992 12.4456 4.49155 10.7123C2.75843 8.98423 1.43658 6.88811 0.624053 4.57946C0.307303 3.67821 0.591678 2.70959 1.23918 2.06209L2.14393 1.15734Z" fill="#D9D9D9"/>
</g>
<defs>
<clipPath id="clip0_102_924">
<rect width="14" height="14" fill="white" transform="translate(0.494141 0.710938)"/>
</clipPath>
</defs>
</svg>
