<svg width="41" height="40" viewBox="0 0 41 40" fill="none" xmlns="http://www.w3.org/2000/svg">
<g clip-path="url(#clip0_1_3008)">
<path fill-rule="evenodd" clip-rule="evenodd" d="M40.8887 20C40.8887 31.0457 31.9344 40 20.8887 40C9.84298 40 0.888672 31.0457 0.888672 20C0.888672 8.95431 9.84298 0 20.8887 0C31.9344 0 40.8887 8.95431 40.8887 20ZM21.6054 14.7649C19.6601 15.5741 15.7722 17.2487 9.94182 19.7889C8.99506 20.1654 8.4991 20.5338 8.45395 20.8939C8.37765 21.5026 9.13986 21.7422 10.1778 22.0686C10.319 22.113 10.4653 22.159 10.6152 22.2077C11.6364 22.5397 13.01 22.928 13.7242 22.9434C14.3719 22.9574 15.0949 22.6904 15.8931 22.1423C21.3406 18.4651 24.1526 16.6064 24.3292 16.5663C24.4537 16.5381 24.6263 16.5025 24.7433 16.6065C24.8602 16.7104 24.8487 16.9073 24.8363 16.9601C24.7608 17.282 21.7689 20.0636 20.2205 21.503C19.7378 21.9518 19.3955 22.2701 19.3255 22.3428C19.1687 22.5056 19.0089 22.6597 18.8553 22.8077C17.9066 23.7223 17.1952 24.4081 18.8947 25.528C19.7114 26.0662 20.3649 26.5113 21.0169 26.9553C21.729 27.4402 22.4391 27.9238 23.358 28.5262C23.5921 28.6796 23.8157 28.839 24.0335 28.9943C24.8621 29.585 25.6066 30.1158 26.5263 30.0311C27.0607 29.9819 27.6128 29.4794 27.8931 27.9806C28.5557 24.4386 29.8581 16.7642 30.159 13.6017C30.1854 13.3246 30.1522 12.97 30.1256 12.8144C30.099 12.6587 30.0433 12.4369 29.841 12.2727C29.6013 12.0783 29.2314 12.0373 29.0659 12.0402C28.3137 12.0535 27.1596 12.4548 21.6054 14.7649Z" fill="#8BCCF2"/>
</g>
<defs>
<clipPath id="clip0_1_3008">
<rect width="40" height="40" fill="white" transform="translate(0.888672)"/>
</clipPath>
</defs>
</svg>
